<svg width="72" height="80" viewBox="0 0 72 80" fill="none" xmlns="http://www.w3.org/2000/svg">
<path fill-rule="evenodd" clip-rule="evenodd" d="M2.92479 0C1.30947 0 0 1.30947 0 2.92479V61.0722C0 62.6875 1.30947 63.997 2.92479 63.997H34.7256L27.4584 71.1884C27.1621 71.4817 27.0691 71.9207 27.2217 72.307C27.3742 72.6934 27.7432 72.9538 28.162 72.9706L34.0179 73.2054L34.2552 79.0002C34.2722 79.4146 34.5353 79.7798 34.9257 79.9308C35.3161 80.0817 35.7598 79.9897 36.0561 79.6965L44.9986 70.8475L47.3703 72.2549C48.5853 72.9759 50.0971 72.9759 51.3122 72.2549L53.9826 70.6702L63.0928 79.6854C63.3892 79.9786 63.8328 80.0706 64.2232 79.9197C64.6136 79.7687 64.8768 79.4035 64.8938 78.9891L65.131 73.1943L70.9869 72.9595C71.4057 72.9427 71.7748 72.6823 71.9273 72.296C72.0798 71.9096 71.9869 71.4706 71.6905 71.1773L63.8479 63.4161L65.0402 62.3887C66.128 61.4512 66.6059 59.9876 66.2809 58.5888L65.5958 55.6404C65.5348 55.378 65.5348 55.1051 65.5958 54.8427L66.2809 51.8942C66.6059 50.4954 66.128 49.0318 65.0402 48.0943L62.7212 46.096C62.5186 45.9213 62.3584 45.7029 62.2527 45.4572L61.0449 42.6483C60.4833 41.3423 59.2496 40.4504 57.8333 40.3265L55.5696 40.1285V2.92479C55.5696 1.30947 54.2601 0 52.6448 0H2.92479ZM62.882 76.5226L56.5613 70.2678L57.8333 70.1565C59.2496 70.0327 60.4833 69.1407 61.0449 67.8347L62.2527 65.0259C62.2759 64.972 62.3017 64.9194 62.33 64.8683L68.4945 70.9687L64.0731 71.146C63.5237 71.168 63.0834 71.6037 63.0612 72.1474L62.882 76.5226ZM42.5602 70.3062L40.8491 70.1565C39.4329 70.0327 38.1991 69.1407 37.6375 67.8347L36.5018 65.1935L30.6546 70.9798L35.0759 71.1571C35.6252 71.1791 36.0655 71.6148 36.0878 72.1584L36.2669 76.5337L42.5602 70.3062ZM32.4016 58.5888C32.1289 59.7622 32.4212 60.9812 33.1647 61.897H2.92479C2.46927 61.897 2.1 61.5277 2.1 61.0722V2.92479C2.1 2.46927 2.46927 2.1 2.92479 2.1H52.6448C53.1003 2.1 53.4696 2.46927 53.4696 2.92479V39.5083L51.3122 38.2281C50.0971 37.5071 48.5853 37.5071 47.3703 38.2281L44.6956 39.8153C44.4682 39.9503 44.2133 40.0323 43.9498 40.0553L40.8491 40.3265C39.4329 40.4504 38.1991 41.3423 37.6375 42.6483L36.4298 45.4572C36.3241 45.7029 36.1639 45.9213 35.9612 46.096L33.6423 48.0943C32.5544 49.0318 32.0765 50.4954 32.4016 51.8942L33.0867 54.8427C33.1477 55.1051 33.1477 55.378 33.0867 55.6404L32.4016 58.5888ZM56.2265 55.2412C56.2265 58.9708 53.1652 62.0317 49.3424 62.0317C45.5196 62.0317 42.4582 58.9708 42.4582 55.2412C42.4582 51.5117 45.5196 48.4508 49.3424 48.4508C53.1652 48.4508 56.2265 51.5117 56.2265 55.2412ZM58.3265 55.2412C58.3265 60.1513 54.3042 64.1317 49.3424 64.1317C44.3806 64.1317 40.3582 60.1513 40.3582 55.2412C40.3582 50.3312 44.3806 46.3508 49.3424 46.3508C54.3042 46.3508 58.3265 50.3312 58.3265 55.2412ZM50.2405 40.0341C49.6861 39.7051 48.9963 39.7051 48.4419 40.0341L45.7673 41.6213C45.2688 41.9171 44.7102 42.0969 44.1328 42.1474L41.0321 42.4185C40.3859 42.475 39.823 42.882 39.5667 43.4779L38.359 46.2867C38.1274 46.8253 37.7762 47.3041 37.3321 47.6868L35.0132 49.6851C34.5168 50.1129 34.2988 50.7807 34.4471 51.4189L35.1322 54.3674C35.2658 54.9425 35.2658 55.5406 35.1322 56.1157L34.4471 59.0641C34.2988 59.7024 34.5168 60.3702 35.0132 60.7979L37.3321 62.7962C37.7762 63.179 38.1274 63.6577 38.359 64.1963L39.5667 67.0051C39.823 67.601 40.3859 68.008 41.0321 68.0645L44.1328 68.3357C44.7102 68.3862 45.2688 68.566 45.7673 68.8618L48.4419 70.4489C48.9963 70.7779 49.6861 70.7779 50.2405 70.4489L52.9152 68.8618C53.4136 68.566 53.9723 68.3862 54.5497 68.3357L57.6504 68.0645C58.2966 68.008 58.8595 67.601 59.1157 67.0051L60.3235 64.1963C60.5551 63.6577 60.9062 63.179 61.3503 62.7962L63.6693 60.7979C64.1656 60.3702 64.3837 59.7024 64.2354 59.0641L63.5503 56.1157C63.4166 55.5406 63.4166 54.9425 63.5503 54.3674L64.2354 51.4189C64.3837 50.7807 64.1656 50.1129 63.6693 49.6851L61.3503 47.6868C60.9062 47.3041 60.5551 46.8253 60.3235 46.2867L59.1157 43.4779C58.8595 42.882 58.2966 42.475 57.6504 42.4185L54.5497 42.1474C53.9723 42.0969 53.4136 41.9171 52.9152 41.6213L50.2405 40.0341ZM10.1298 9.9834C9.54995 9.9834 9.07985 10.4535 9.07985 11.0334C9.07985 11.6133 9.54995 12.0834 10.1298 12.0834H45.4399C46.0198 12.0834 46.4899 11.6133 46.4899 11.0334C46.4899 10.4535 46.0198 9.9834 45.4399 9.9834H10.1298ZM9.07985 20.0187C9.07985 19.4389 9.54995 18.9688 10.1298 18.9688H45.4399C46.0198 18.9688 46.4899 19.4389 46.4899 20.0187C46.4899 20.5986 46.0198 21.0687 45.4399 21.0687H10.1298C9.54995 21.0687 9.07985 20.5986 9.07985 20.0187ZM10.1298 26.9551C9.54995 26.9551 9.07985 27.4252 9.07985 28.0051C9.07985 28.585 9.54995 29.0551 10.1298 29.0551H45.4399C46.0198 29.0551 46.4899 28.585 46.4899 28.0051C46.4899 27.4252 46.0198 26.9551 45.4399 26.9551H10.1298ZM8.06989 45.9758C8.06989 45.3959 8.53999 44.9258 9.11989 44.9258H21.2262C21.8061 44.9258 22.2762 45.3959 22.2762 45.9758C22.2762 46.5557 21.8061 47.0258 21.2262 47.0258H9.11989C8.53999 47.0258 8.06989 46.5557 8.06989 45.9758ZM9.11989 52.9121C8.53999 52.9121 8.06989 53.3822 8.06989 53.9621C8.06989 54.542 8.53999 55.0121 9.11989 55.0121H21.2262C21.8061 55.0121 22.2762 54.542 22.2762 53.9621C22.2762 53.3822 21.8061 52.9121 21.2262 52.9121H9.11989Z" fill="#EBCB9A"/>
</svg>
