<svg width="72" height="80" viewBox="0 0 72 80" fill="none" xmlns="http://www.w3.org/2000/svg">
<path fill-rule="evenodd" clip-rule="evenodd" d="M41.8942 2.36269C39.9486 1.07585 37.6081 0.451365 35.3267 0.464938C30.4627 0.493876 25.4479 3.43694 24.8008 9.39481L24.7945 9.45227L24.7947 14.7426H12.3181C10.9855 14.7426 9.90521 15.8375 9.90521 17.1882V38.7337C9.90521 39.315 10.3701 39.7862 10.9437 39.7862C11.5172 39.7862 11.9821 39.315 11.9821 38.7337V17.1882C11.9821 17.0001 12.1326 16.8476 12.3181 16.8476H24.7947L24.7945 25.8954C24.7945 25.8954 24.7945 25.8959 25.833 25.8959L24.7945 25.8954C24.7945 26.4767 25.2594 26.9484 25.8329 26.9484C26.4065 26.9485 26.8714 26.4773 26.8715 25.896L25.833 25.8959C26.8715 25.896 26.8715 25.896 26.8715 25.896L26.8717 16.8476H44.266V25.8959C44.266 26.4772 44.7309 26.9484 45.3044 26.9484C45.878 26.9484 46.3429 26.4772 46.3429 25.8959V16.8476H57.7319V77.8949H12.3181C12.1326 77.8949 11.9821 77.7425 11.9821 77.5544V58.727C11.9821 58.1457 11.5172 57.6745 10.9437 57.6745C10.3701 57.6745 9.90521 58.1457 9.90521 58.727V77.5544C9.90521 78.9051 10.9855 80 12.3181 80H69.5871C70.9197 80 72 78.9051 72 77.5544V17.1882C72 15.8375 70.9197 14.7426 69.5871 14.7426H59.8591V9.11164L59.8454 9.02703C58.8561 2.91325 53.7285 -0.0293994 48.8428 0.00022137C46.3616 0.0152643 43.8493 0.800227 41.8942 2.36269ZM40.3878 14.4644C40.3878 13.5259 40.3879 11.9218 40.3876 9.25567C40.5719 7.6179 41.1632 6.25237 42.0307 5.16853C43.1406 6.28777 43.947 7.76625 44.266 9.59951V14.7426H40.3878L40.3878 14.4644ZM38.3108 14.7426H26.8717L26.8715 9.56932C27.3951 5.01366 31.2142 2.5945 35.3389 2.56996C37.1225 2.55935 38.8853 2.99902 40.3761 3.88289C39.2894 5.25223 38.5404 6.98528 38.3167 9.08446L38.3107 9.14086L38.3107 9.19759C38.3109 11.8986 38.3109 13.5191 38.3109 14.4643L38.3108 14.7426ZM43.5565 3.73094C44.9331 5.13498 45.9432 6.99884 46.3287 9.33635L46.3429 9.42251V14.7426H57.7821V9.28529C56.9644 4.48529 52.9517 2.08041 48.8552 2.10524C46.923 2.11696 45.0516 2.66645 43.5565 3.73094ZM59.8089 16.8476V77.8949H63.1242V16.8476H59.8089ZM65.2011 16.8476V77.8949H69.5871C69.7726 77.8949 69.9231 77.7425 69.9231 77.5544V17.1882C69.9231 17.0001 69.7726 16.8476 69.5871 16.8476H65.2011Z" fill="#EBCB9A"/>
<path fill-rule="evenodd" clip-rule="evenodd" d="M32.7031 67.2345C31.862 67.9649 30.8128 68.7026 28.8778 68.7242C28.2328 68.597 27.5032 68.1588 26.6914 67.3243C25.8555 66.4649 25.011 65.2658 24.1635 63.806C22.4681 60.8855 20.8586 57.0962 19.3239 53.3299C19.0733 52.7149 18.8245 52.0999 18.5776 51.4896C17.328 48.4012 16.1274 45.4338 14.9965 43.2061C14.3229 41.8794 13.6307 40.7251 12.9143 39.9499C12.2357 39.2155 11.2119 38.4953 10.0189 38.9599C4.46531 41.1225 1.63318 44.038 0.504424 47.5068C-0.349531 50.1311 0.0389241 52.071 0.512825 54.1291C0.537387 54.2357 0.562242 54.343 0.587262 54.4509C0.904424 55.819 1.24793 57.3008 1.35458 59.213H1.34593L1.34663 78.5998C1.34665 79.1811 1.81158 79.6523 2.38509 79.6523H6.3277C6.90124 79.6523 7.36617 79.1811 7.36617 78.5998V61.4767C7.37692 60.0101 7.79223 59.2603 8.17103 58.8774C8.57055 58.4736 9.05351 58.3502 9.37594 58.3502C10.9313 58.3502 12.1131 59.1735 13.1847 60.7247C14.2818 62.3128 15.147 64.5021 16.0673 66.9392C16.132 67.1106 16.1969 67.283 16.2622 67.4564C17.1044 69.6931 18.0029 72.0793 19.1626 74.1092C20.416 76.3031 22.0557 78.2311 24.4269 79.1224C24.4842 79.144 24.5434 79.1603 24.6037 79.1714C27.7471 79.7459 34.5018 79.9299 40.3149 79.1871C43.2158 78.8164 45.9885 78.2029 47.9856 77.2316C48.9842 76.746 49.8707 76.1323 50.4635 75.3386C51.0651 74.5333 51.3377 73.5727 51.1525 72.511C51.1053 71.3275 50.3015 70.4763 49.4207 69.8816C48.4948 69.2564 47.2422 68.744 45.868 68.2903C44.1756 67.7315 42.1203 67.2096 40.0269 66.6781C38.752 66.3544 37.4627 66.027 36.233 65.6857C35.3731 65.4469 34.6648 65.6948 34.0972 66.0666C33.7405 66.3002 33.3599 66.6443 33.0265 66.9457C32.9123 67.0489 32.8033 67.1475 32.7031 67.2345ZM5.28924 61.535H5.28804C5.28804 59.6154 5.83918 58.2614 6.70446 57.3868C7.55401 56.5282 8.59577 56.2452 9.37594 56.2452C11.8529 56.2452 13.5906 57.6421 14.8861 59.5173C16.156 61.3556 17.1053 63.799 18.007 66.1868L18.1881 66.6671C19.0466 68.9451 19.8879 71.1778 20.96 73.0544C22.0848 75.0233 23.385 76.4544 25.065 77.1163C28.0001 77.632 34.4586 77.8137 40.0552 77.0985C42.889 76.7364 45.3955 76.1564 47.0871 75.3337C47.9329 74.9224 48.4931 74.489 48.8076 74.068C49.0947 73.6837 49.1918 73.2968 49.0985 72.8305C49.0847 72.7617 49.0778 72.6916 49.0778 72.6213C49.0778 72.4404 48.9705 72.107 48.2692 71.6336C47.5861 71.1723 46.5536 70.7306 45.2248 70.2918C43.585 69.7505 41.6714 69.2655 39.6455 68.7521C38.3567 68.4255 37.0225 68.0874 35.6843 67.7159C35.5586 67.681 35.4592 67.6809 35.2244 67.8346C35.0104 67.9748 34.8176 68.1493 34.5459 68.3953C34.4071 68.5209 34.2477 68.6652 34.0544 68.8331C32.9791 69.7668 31.4486 70.8298 28.7902 70.8298C28.7356 70.8298 28.681 70.8254 28.627 70.8167C27.3465 70.6102 26.2093 69.827 25.2124 68.8022C24.2078 67.7694 23.2634 66.4066 22.3734 64.8735C20.5939 61.8083 18.9343 57.8884 17.4043 54.1335C17.1472 53.5025 16.8939 52.8768 16.6444 52.2603C15.3936 49.1694 14.2356 46.3083 13.1497 44.1693C12.4947 42.8792 11.9091 41.9416 11.3983 41.3888C11.1444 41.114 10.9598 40.991 10.8503 40.944C10.8015 40.9231 10.7784 40.9219 10.7758 40.9218C10.7758 40.9218 10.7738 40.9211 10.7638 40.9249C5.58485 42.9416 3.35019 45.4823 2.47686 48.1661C1.81156 50.2107 2.07849 51.6664 2.53541 53.6506C2.56058 53.7599 2.58625 53.8706 2.61225 53.9826C3.06629 55.9393 3.6227 58.3373 3.42296 61.9024L3.42352 77.5473H5.28924V61.535Z" fill="#EBCB9A"/>
</svg>
