<svg width="83" height="80" viewBox="0 0 83 80" fill="none" xmlns="http://www.w3.org/2000/svg">
<path fill-rule="evenodd" clip-rule="evenodd" d="M13.7909 0C13.211 0 12.7409 0.470101 12.7409 1.05V20.4897C12.7409 21.0696 13.211 21.5397 13.7909 21.5397H17.428C17.4265 21.5865 17.4258 21.6336 17.4258 21.6808C17.4258 24.0518 19.2577 25.9739 21.5175 25.9739C23.7772 25.9739 25.6091 24.0518 25.6091 21.6808C25.6091 21.6336 25.6084 21.5865 25.607 21.5397H27.4298H31.9761H37.3749H39.2625C39.4265 23.753 41.1901 25.4954 43.3417 25.4954C45.4932 25.4954 47.2569 23.753 47.4209 21.5397H50.1614C50.7413 21.5397 51.2114 21.0696 51.2114 20.4897V12.8017C51.2114 12.62 51.1642 12.4414 51.0745 12.2834L49.7859 10.013L46.75 4.66409C46.5635 4.33545 46.2147 4.13238 45.8368 4.13238H43.7213H42.6636H42.1347H41.6058H38.4249V1.05C38.4249 0.470101 37.9548 0 37.3749 0H31.9761H13.7909ZM47.0737 19.4397H49.1114V13.0789L48.2614 11.5813H42.1347C41.5548 11.5813 41.0847 11.1112 41.0847 10.5313V6.23238H38.4249V19.4397H39.6097C40.2507 17.9477 41.6806 16.9092 43.3417 16.9092C45.0028 16.9092 46.4326 17.9477 47.0737 19.4397ZM21.5175 17.3877C20.0405 17.3877 18.7463 18.2088 18.0269 19.4397H14.8409V2.1H31.9761H36.3249V5.18238V19.4397H31.9761H27.4298H25.0081C24.2887 18.2088 22.9945 17.3877 21.5175 17.3877ZM43.1847 9.48131V6.23238H43.7213H45.2254L47.0695 9.48131H43.1847ZM0.0105591 5.69824C0.0105591 5.11834 0.48066 4.64824 1.06056 4.64824H8.33465C8.91455 4.64824 9.38465 5.11834 9.38465 5.69824C9.38465 6.27814 8.91455 6.74824 8.33465 6.74824H1.06056C0.48066 6.74824 0.0105591 6.27814 0.0105591 5.69824ZM1.06056 9.65801C0.48066 9.65801 0.0105591 10.1281 0.0105591 10.708C0.0105591 11.2879 0.48066 11.758 1.06056 11.758H8.33465C8.91455 11.758 9.38465 11.2879 9.38465 10.708C9.38465 10.1281 8.91455 9.65801 8.33465 9.65801H1.06056ZM54.6926 15.6938C54.6925 15.6938 54.6925 15.6938 54.6924 14.644L54.6925 15.6938C54.1125 15.6938 53.6424 15.2237 53.6424 14.6438C53.6424 14.0639 54.1125 13.5938 54.6924 13.5938L54.6924 14.6438C54.6924 13.5938 54.6925 13.5938 54.6926 13.5938H54.6929H54.6945H54.7007H54.7251L54.821 13.5938L55.1902 13.5938L56.5514 13.5938L61.0717 13.5938L71.7563 13.5938C71.8222 13.5938 71.8879 13.6 71.9526 13.6123C82.7911 15.6744 83.7678 31.845 72.0174 34.862C71.9321 34.8839 71.8444 34.895 71.7563 34.895H71.6928H71.6288H71.5644H71.4995H71.4342H71.3683H71.3021H71.2354H71.1682H71.1006H71.0325H70.964H70.895H70.8256H70.7558H70.6855H70.6148H70.5436H70.4721H70.4H70.3276H70.2547H70.1814H70.1077H70.0336H69.959H69.884H69.8086H69.7328H69.6566H69.58H69.503H69.4255H69.3477H69.2694H69.1908H69.1117H69.0323H68.9525H68.8722H68.7916H68.7106H68.6292H68.5474H68.4652H68.3827H68.2998H68.2165H68.1328H68.0487H67.9643H67.8795H67.7944H67.7088H67.6229H67.5367H67.4501H67.3631H67.2758H67.1881H67.1H67.0117H66.9229H66.8338H66.7444H66.6546H66.5645H66.4741H66.3833H66.2921H66.2007H66.1089H66.0168H65.9243H65.8315H65.7384H65.645H65.5513H65.4572H65.3628H65.2681H65.1731H65.0778H64.9822H64.8863H64.79H64.6935H64.5966H64.4995H64.402H64.3043H64.2063H64.108H64.0093H63.9104H63.8113H63.7118H63.612H63.512H63.4117H63.3111H63.2102H63.1091H63.0077H62.906H62.8041H62.7019H62.5994H62.4967H62.3937H62.2904H62.1869H62.0832H61.9792H61.8749H61.7704H61.6656H61.5606H61.4554H61.3499H61.2442H61.1382H61.032H60.9256H60.8189H60.7121H60.6049H60.4976H60.39H60.2823H60.1743H60.066H59.9576H59.849H59.7401H59.631H59.5217H59.4123H59.3026H59.1927H59.0826H58.9723H58.8618H58.7511H58.6402H58.5292H58.4179H58.3065H58.1948H58.083H57.971H57.8588H57.7465H57.634H57.5213H57.4084H57.2953H57.1821H57.0688H56.9552H56.8415H56.7276H56.6136H56.4994H56.3851H56.2706H56.156H56.0412H55.9262H55.8112H55.6959H55.5806H55.4651H55.3494H55.2336H55.1177H55.0017H54.8855H54.7692H54.6528H54.5362H54.4195H54.3027H54.1858H54.0688H53.9516H53.8344H53.717H53.5995H53.4819H53.3642H53.2464H53.1285H53.0105H52.8924H52.7742H52.656H52.5376H52.4191H52.3006H52.1819H52.0632H51.9444H51.8255H51.7065H51.5875H51.4683H51.3491H51.2299H51.1105H50.9911H50.8717H50.7521H50.6325H50.5129H50.3932H50.2734H50.1536H50.0337H49.9138H49.7938H49.6738H49.5537H49.4336H49.3135H49.1933H49.0731H48.9528H48.8325H48.7122H48.5918H48.4715H48.3511H48.2306H48.1102H47.9897H47.8692H47.7487H47.6282H47.5077H47.3871H47.2666H47.146H47.0255H46.9049H46.7844H46.6638H46.5432H46.4227H46.3021H46.1816H46.0611H45.9406H45.8201H45.6996H45.5791H45.4587H45.3382H45.2178H45.0975H44.9771H44.8568H44.7365H44.6163H44.4961H44.3759H44.2557H44.1356H44.0156H43.8956H43.7756H43.6557H43.5358H43.416H43.2963H43.1766H43.0569H42.9373H42.8178H42.6984H42.579H42.4597H42.3404H42.2212H42.1021H41.9831H41.8641H41.7453H41.6265H41.5078H41.3891H41.2706H41.1521H41.0338H40.9155H40.7973H40.6793H40.5613H40.4434H40.3256H40.2079H40.0904H39.9729H39.8556H39.7383H39.6212H39.5042H39.3873H39.2705H39.1539H39.0373H38.9209H38.8047H38.6885H38.5725H38.4566H38.3409H38.2252H38.1098H37.9944H37.8792H37.7642H37.6493H37.5345H37.4199H37.3054H37.1911H37.077H36.963H36.8492H36.7355H36.622H36.5086H36.3955H36.2824H36.1696H36.0569H35.9444H35.8321H35.72H35.608H35.4963H35.3847H35.2733H35.162H35.051H34.9402H34.8295H34.7191H34.6088H34.4988H34.3889H34.2793H34.1698H34.0606H33.9516H33.8428H33.7341H33.6257H33.5176H33.4096H33.3019H33.1944H33.0871H32.98H32.8732H32.7666H32.6602H32.554H32.4481H32.3424H32.237H32.1318H32.0269H31.9222H31.8177H31.7135H31.6095H31.5058H31.4024H31.2992H31.1962H31.0936H30.9911H30.889H30.7871H30.6855H30.5841H30.4831H30.3822H30.2817H30.1815H30.0815H29.9818H29.8824H29.7833H29.6844H29.5859H29.4876H29.3896H29.292H29.1946H29.0975H29.0007H28.9042H28.8081H28.7122H28.6166H28.5214H28.4264H28.3318H28.2375H28.1435H28.0498H27.9565H27.8634H27.7707H27.6783H27.5863H27.4945H27.4032H27.3121H27.2214H27.131H27.0409H26.9512H26.8619H26.7729H26.6842H26.5959H26.5079H26.4203H26.333H26.2461H26.1596H26.0734H25.9876H25.9022H25.8171H25.7323H25.648H25.564H25.4804H25.3972H25.3143H25.2319H25.1498H25.0681H24.9868H24.9058H24.8253H24.7452H24.6654H24.586H24.5071H24.4285H24.3503H24.2726H24.1952H24.1183H24.0417H23.9656H23.8899H23.8146H23.7397H23.6652H23.5911H23.5175H23.4443H23.3715H23.2992H23.2272H23.1557H23.0847H23.0141H22.9439H22.8741H22.8048H22.7359H22.6675H22.5995H22.532H22.4649H22.3983H22.3321H22.2664H22.2012H22.1364H22.072H22.0081H21.9447H21.8818H21.8193H21.7573H21.6958H21.6347H21.5742H21.5141H21.4545H21.3953H21.3367H21.2785H21.2208H21.1636H21.107H21.0508H20.9951H20.9398H20.8851H20.8309H20.8084C11.6842 36.3894 6.26102 43.8408 5.83139 51.6947C5.40544 59.4815 9.90541 67.6882 20.8627 70.6606L37.1048 70.6605H41.2344L42.2712 70.6606H42.5309H42.5959H42.6122H42.6162H42.6172H42.6175C43.1975 70.6606 43.6676 71.1307 43.6676 71.7106C43.6676 72.2905 43.1975 72.7606 42.6175 72.7606H42.6172H42.6162H42.6122H42.5959H42.5309H42.2712H41.2344L37.1048 72.7605L20.724 72.7606C20.6329 72.7606 20.5421 72.7487 20.4539 72.7252C8.43338 69.5254 3.25292 60.3841 3.73453 51.58C4.21289 42.8351 10.2954 34.4455 20.5586 32.8081C20.6133 32.7993 20.6686 32.795 20.724 32.795H20.7772H20.8309H20.8851H20.9398H20.9951H21.0508H21.107H21.1636H21.2208H21.2785H21.3367H21.3953H21.4545H21.5141H21.5742H21.6347H21.6958H21.7573H21.8193H21.8818H21.9447H22.0081H22.072H22.1364H22.2012H22.2664H22.3321H22.3983H22.4649H22.532H22.5995H22.6675H22.7359H22.8048H22.8741H22.9439H23.0141H23.0847H23.1557H23.2272H23.2992H23.3715H23.4443H23.5175H23.5911H23.6652H23.7397H23.8146H23.8899H23.9656H24.0417H24.1183H24.1952H24.2726H24.3503H24.4285H24.5071H24.586H24.6654H24.7452H24.8253H24.9058H24.9868H25.0681H25.1498H25.2319H25.3143H25.3972H25.4804H25.564H25.648H25.7323H25.8171H25.9022H25.9876H26.0734H26.1596H26.2461H26.333H26.4203H26.5079H26.5959H26.6842H26.7729H26.8619H26.9512H27.0409H27.131H27.2214H27.3121H27.4032H27.4945H27.5863H27.6783H27.7707H27.8634H27.9565H28.0498H28.1435H28.2375H28.3318H28.4264H28.5214H28.6166H28.7122H28.8081H28.9042H29.0007H29.0975H29.1946H29.292H29.3896H29.4876H29.5859H29.6844H29.7833H29.8824H29.9818H30.0815H30.1815H30.2817H30.3822H30.4831H30.5841H30.6855H30.7871H30.889H30.9911H31.0936H31.1962H31.2992H31.4024H31.5058H31.6095H31.7135H31.8177H31.9222H32.0269H32.1318H32.237H32.3424H32.4481H32.554H32.6602H32.7666H32.8732H32.98H33.0871H33.1944H33.3019H33.4096H33.5176H33.6257H33.7341H33.8428H33.9516H34.0606H34.1698H34.2793H34.3889H34.4988H34.6088H34.7191H34.8295H34.9402H35.051H35.162H35.2733H35.3847H35.4963H35.608H35.72H35.8321H35.9444H36.0569H36.1696H36.2824H36.3955H36.5086H36.622H36.7355H36.8492H36.963H37.077H37.1911H37.3054H37.4199H37.5345H37.6493H37.7642H37.8792H37.9944H38.1098H38.2252H38.3409H38.4566H38.5725H38.6885H38.8047H38.9209H39.0373H39.1539H39.2705H39.3873H39.5042H39.6212H39.7383H39.8556H39.9729H40.0904H40.2079H40.3256H40.4434H40.5613H40.6793H40.7973H40.9155H41.0338H41.1521H41.2706H41.3891H41.5078H41.6265H41.7453H41.8641H41.9831H42.1021H42.2212H42.3404H42.4597H42.579H42.6984H42.8178H42.9373H43.0569H43.1766H43.2963H43.416H43.5358H43.6557H43.7756H43.8956H44.0156H44.1356H44.2557H44.3759H44.4961H44.6163H44.7365H44.8568H44.9771H45.0975H45.2178H45.3382H45.4587H45.5791H45.6996H45.8201H45.9406H46.0611H46.1816H46.3021H46.4227H46.5432H46.6638H46.7844H46.9049H47.0255H47.146H47.2666H47.3871H47.5077H47.6282H47.7487H47.8692H47.9897H48.1102H48.2306H48.3511H48.4715H48.5918H48.7122H48.8325H48.9528H49.0731H49.1933H49.3135H49.4336H49.5537H49.6738H49.7938H49.9138H50.0337H50.1536H50.2734H50.3932H50.5129H50.6325H50.7521H50.8717H50.9911H51.1105H51.2299H51.3491H51.4683H51.5875H51.7065H51.8255H51.9444H52.0632H52.1819H52.3006H52.4191H52.5376H52.656H52.7742H52.8924H53.0105H53.1285H53.2464H53.3642H53.4819H53.5995H53.717H53.8344H53.9516H54.0688H54.1858H54.3027H54.4195H54.5362H54.6528H54.7692H54.8855H55.0017H55.1177H55.2336H55.3494H55.4651H55.5806H55.6959H55.8112H55.9262H56.0412H56.156H56.2706H56.3851H56.4994H56.6136H56.7276H56.8415H56.9552H57.0688H57.1821H57.2953H57.4084H57.5213H57.634H57.7465H57.8588H57.971H58.083H58.1948H58.3065H58.4179H58.5292H58.6402H58.7511H58.8618H58.9723H59.0826H59.1927H59.3026H59.4123H59.5217H59.631H59.7401H59.849H59.9576H60.066H60.1743H60.2823H60.39H60.4976H60.6049H60.7121H60.8189H60.9256H61.032H61.1382H61.2442H61.3499H61.4554H61.5606H61.6656H61.7704H61.8749H61.9792H62.0832H62.1869H62.2904H62.3937H62.4967H62.5994H62.7019H62.8041H62.906H63.0077H63.1091H63.2102H63.3111H63.4117H63.512H63.612H63.7118H63.8113H63.9104H64.0093H64.108H64.2063H64.3043H64.402H64.4995H64.5966H64.6935H64.79H64.8863H64.9822H65.0778H65.1731H65.2681H65.3628H65.4572H65.5513H65.645H65.7384H65.8315H65.9243H66.0168H66.1089H66.2007H66.2921H66.3833H66.4741H66.5645H66.6546H66.7444H66.8338H66.9229H67.0117H67.1H67.1881H67.2758H67.3631H67.4501H67.5367H67.6229H67.7088H67.7944H67.8795H67.9643H68.0487H68.1328H68.2165H68.2998H68.3827H68.4652H68.5474H68.6292H68.7106H68.7916H68.8722H68.9525H69.0323H69.1117H69.1908H69.2694H69.3477H69.4255H69.503H69.58H69.6566H69.7328H69.8086H69.884H69.959H70.0336H70.1077H70.1814H70.2547H70.3276H70.4H70.4721H70.5436H70.6148H70.6855H70.7558H70.8256H70.895H70.964H71.0325H71.1006H71.1682H71.2354H71.3021H71.3683H71.4342H71.4995H71.5644H71.6207C81.0673 30.2546 80.1249 17.3989 71.6546 15.6938L61.0717 15.6938L56.5514 15.6938L55.1902 15.6938L54.821 15.6938L54.7251 15.6938H54.7007L54.6945 15.6938H54.693H54.6926ZM0.0105591 15.7178C0.0105591 15.1379 0.48066 14.6678 1.06056 14.6678H8.33465C8.91455 14.6678 9.38465 15.1379 9.38465 15.7178C9.38465 16.2977 8.91455 16.7678 8.33465 16.7678H1.06056C0.48066 16.7678 0.0105591 16.2977 0.0105591 15.7178ZM21.5175 23.8739C22.5235 23.8739 23.5091 22.9882 23.5091 21.6808C23.5091 20.3733 22.5235 19.4877 21.5175 19.4877C20.5114 19.4877 19.5258 20.3733 19.5258 21.6808C19.5258 22.9882 20.5114 23.8739 21.5175 23.8739ZM45.3334 21.2023C45.3334 22.5097 44.3477 23.3954 43.3417 23.3954C42.3357 23.3954 41.35 22.5097 41.35 21.2023C41.35 19.8948 42.3357 19.0092 43.3417 19.0092C44.3477 19.0092 45.3334 19.8948 45.3334 21.2023ZM59.4561 41.1776C59.8561 40.8155 60.4653 40.8155 60.8653 41.1776L65.4698 45.3454L65.3972 43.3174C65.387 43.0326 65.493 42.7559 65.6909 42.5508C65.8888 42.3457 66.1615 42.2298 66.4465 42.2298H67.2199H68.7667H71.8603C72.4402 42.2298 72.9103 42.6999 72.9103 43.2798V44.6036V47.2511V52.0803L73.8649 52.9444L76.4649 55.2978L81.6647 60.0045C81.9866 60.2959 82.096 60.7554 81.9398 61.1605C81.7837 61.5657 81.3943 61.833 80.9601 61.833H73.8267V78.6887C73.8267 79.2686 73.3566 79.7387 72.7767 79.7387H65.389V79.9996H55.2734V79.7387H47.5447C46.9648 79.7387 46.4947 79.2686 46.4947 78.6887V61.833H39.3613C38.9271 61.833 38.5377 61.5657 38.3816 61.1605C38.2254 60.7554 38.3348 60.2959 38.6567 60.0045L59.4561 41.1776ZM63.289 77.6387H57.3735L57.3735 76.8536L57.3734 71.3089C57.3734 69.5667 57.8782 68.5076 58.4127 67.9155C58.948 67.3225 59.6276 67.0615 60.295 67.073C61.4961 67.0937 63.289 68.1266 63.289 71.3092V71.3345V71.3597V71.385V71.4103V71.4356V71.4608V71.4861V71.5114V71.5367V71.5619V71.5872V71.6125V71.6377V71.663V71.6883V71.7135V71.7388V71.7641V71.7893V71.8146V71.8398V71.8651V71.8903V71.9156V71.9408V71.9661V71.9913V72.0165V72.0418V72.067V72.0922V72.1174V72.1426V72.1679V72.1931V72.2182V72.2434V72.2686V72.2938V72.319V72.3441V72.3693V72.3944V72.4196V72.4447V72.4699V72.495V72.5201V72.5452V72.5703V72.5954V72.6205V72.6455V72.6706V72.6957V72.7207V72.7457V72.7708V72.7958V72.8208V72.8458V72.8708V72.8957V72.9207V72.9456V72.9706V72.9955V73.0204V73.0453V73.0702V73.0951V73.12V73.1448V73.1697V73.1945V73.2193V73.2441V73.2689V73.2937V73.3184V73.3432V73.3679V73.3926V73.4173V73.442V73.4667V73.4913V73.516V73.5406V73.5652V73.5898V73.6144V73.6389V73.6635V73.688V73.7125V73.737V73.7614V73.7859V73.8103V73.8347V73.8591V73.8835V73.9079V73.9322V73.9565V73.9808V74.0051V74.0294V74.0536V74.0779V74.1021V74.1262V74.1504V74.1745V74.1986V74.2227V74.2468V74.2709V74.2949V74.3189V74.3429V74.3668V74.3908V74.4147V74.4386V74.4624V74.4863V74.5101V74.5339V74.5577V74.5814V74.6052V74.6289V74.6525V74.6762V74.6998V74.7234V74.747V74.7705V74.794V74.8175V74.841V74.8644V74.8878V74.9112V74.9346V74.9579V74.9812V75.0045V75.0277V75.0509V75.0741V75.0973V75.1204V75.1435V75.1666V75.1896V75.2126V75.2356V75.2586V75.2815V75.3044V75.3272V75.3501V75.3728V75.3956V75.4184V75.441V75.4637V75.4864V75.509V75.5315V75.5541V75.5766V75.599V75.6215V75.6439V75.6663V75.6886V75.7109V75.7332V75.7554V75.7776V75.7998V75.8219V75.844V75.8661V75.8881V75.9101V75.932V75.9539V75.9758V75.9976V76.0194V76.0412V76.0629V76.0846V76.1063V76.1279V76.1495V76.171V76.1925V76.214V76.2354V76.2568V76.2781V76.2994V76.3207V76.3419V76.3631V76.3842V76.4053V76.4264V76.4474V76.4684V76.4893V76.5102V76.5311V76.5519V76.5727V76.5934V76.6141V76.6347V76.6553V76.6759V76.6964V76.7169V76.7373V76.7577V76.778V76.7983V76.8185V76.8387V76.8589V76.879V76.8991V76.9191V76.9391V76.959V76.9789V76.9987V77.0185V77.0383V77.058V77.0776V77.0972V77.1168V77.1363V77.1558V77.1752V77.1945V77.2138V77.2331V77.2523V77.2715V77.2906V77.3097V77.3287V77.3477V77.3666V77.3855V77.4043V77.423V77.4418V77.4604V77.479V77.4976V77.5161V77.5346V77.553V77.5713V77.5896V77.6079V77.6261V77.6387ZM65.389 77.6387V71.3092C65.389 63.0353 55.2732 62.6875 55.2734 71.3089V77.6387H48.5947V60.783C48.5947 60.2031 48.1246 59.733 47.5447 59.733H42.086L60.1607 43.3723L64.6272 47.4152L65.8546 48.7032C66.1555 49.0189 66.6202 49.1157 67.0222 48.9465C67.4242 48.7772 67.6796 48.3771 67.664 47.9412L67.5348 44.3298H68.7667H70.8103V44.6036V47.2511V52.5462C70.8103 52.8428 70.9358 53.1256 71.1557 53.3246L72.4557 54.5013L75.0556 56.8547L78.2354 59.733H72.7767C72.1968 59.733 71.7267 60.2031 71.7267 60.783V77.6387H65.389Z" fill="#EBCB9A"/>
</svg>
