<svg width="22" height="22" viewBox="0 0 22 22" fill="none" xmlns="http://www.w3.org/2000/svg">
<path d="M10.1834 0.0215473C8.58837 0.172022 7.37598 0.511663 6.05181 1.17805C4.99849 1.70256 4.14293 2.33025 3.23579 3.2331C2.27276 4.20043 1.66226 5.05168 1.08616 6.24688C0.406877 7.64844 0.067235 9.0414 0.00704535 10.6321C-0.0574435 12.4636 0.320891 14.2091 1.13775 15.8514C1.70955 17.0079 2.30285 17.8248 3.23579 18.762C4.18593 19.7079 5.00708 20.2969 6.16359 20.8644C6.97185 21.2599 7.49206 21.4534 8.31322 21.6597C10.4628 22.2014 12.6254 22.094 14.7148 21.3545C15.2866 21.1524 16.3184 20.6537 16.8043 20.3442C19.3924 18.7018 21.2024 16.0922 21.7871 13.1687C21.9505 12.3604 21.9849 11.9778 21.9849 10.9976C21.9849 10.0173 21.9505 9.6347 21.7871 8.82643C21.2196 5.98032 19.487 3.42656 17.0192 1.79284C16.456 1.41881 15.2522 0.821211 14.6546 0.614845C13.7776 0.313898 12.879 0.12043 11.9676 0.0344448C11.5291 -0.00424767 10.5359 -0.012846 10.1834 0.0215473ZM12.376 1.56068C14.4526 1.87453 16.2411 2.77737 17.7286 4.26922C19.229 5.76536 20.119 7.53666 20.4457 9.66479C20.5489 10.3398 20.5489 11.6553 20.4457 12.3303C20.1921 13.9898 19.5902 15.4258 18.597 16.7586C18.2058 17.2831 17.2858 18.2031 16.7613 18.5944C15.0244 19.8884 13.1456 20.5161 11.0003 20.5161C8.85922 20.5161 6.97185 19.8841 5.24784 18.5944C3.26159 17.1025 1.94601 14.8712 1.55908 12.3303C1.4516 11.6467 1.4516 10.3355 1.55478 9.66479C2.04919 6.47044 3.95807 3.84789 6.80847 2.44203C7.90908 1.90032 8.91511 1.62517 10.3339 1.479C10.6692 1.4446 11.9332 1.49619 12.376 1.56068Z"/>
<path d="M10.7724 4.43681C10.5703 4.5099 10.4242 4.64318 10.3382 4.82804C10.278 4.95272 10.2694 5.35255 10.2694 8.06109V11.1566L10.3683 11.3328C10.4413 11.4704 10.8928 11.853 12.3545 13.0224C13.3949 13.8522 14.2978 14.5573 14.3623 14.5917C14.4268 14.6261 14.5729 14.6519 14.689 14.6519C15.2092 14.6519 15.5446 14.0887 15.3124 13.6028C15.2608 13.4954 14.7793 13.0826 13.4895 12.0508L11.7311 10.6449L11.7225 7.75584L11.7096 4.86244L11.5893 4.70767C11.3829 4.43681 11.0647 4.32933 10.7724 4.43681Z"/>
</svg>
