<svg width="22" height="22" viewBox="0 0 22 22" xmlns="http://www.w3.org/2000/svg">
<path d="M3.89379 0.0475769C3.54535 0.137913 3.18831 0.335791 2.82266 0.649815C2.4183 0.998253 0.968628 2.47374 0.732034 2.77916C-0.227246 4.00514 -0.244453 5.9108 0.684715 8.37137C1.81606 11.3783 3.9368 14.4239 6.62107 16.8974C10.3205 20.3086 15.2761 22.5154 17.827 21.8959C18.2056 21.8056 18.8336 21.5131 19.1218 21.2937C19.4143 21.0743 21.3587 19.0783 21.5394 18.8159C21.8749 18.3298 22.004 17.6803 21.8749 17.1296C21.7286 16.5145 21.6813 16.4586 19.8101 14.583C17.9216 12.6946 17.8614 12.6473 17.2377 12.5182C16.743 12.415 16.2397 12.5053 15.7536 12.7849C15.6417 12.8537 15.1083 13.3398 14.5706 13.8733L13.5941 14.8368L13.2801 14.6734C12.5101 14.2733 11.9423 13.8905 11.0948 13.1936C10.2259 12.4795 9.01281 11.2277 8.34175 10.3502C7.85566 9.71351 7.14157 8.53914 7.13727 8.37998C7.13727 8.34987 7.4728 7.99713 7.88147 7.59707C8.74181 6.75823 9.08164 6.36678 9.27522 5.99683C9.51611 5.52795 9.56343 4.93431 9.39567 4.44392C9.2279 3.94492 9.06443 3.75565 7.42118 2.10809C5.79514 0.48205 5.54564 0.266964 5.08106 0.107801C4.75843 -0.00834465 4.22502 -0.0341549 3.89379 0.0475769ZM4.89178 1.25636C5.01223 1.32518 5.7005 1.97474 6.62537 2.90391C8.29873 4.58157 8.36326 4.659 8.35895 5.10208C8.35895 5.49353 8.25571 5.63119 7.13297 6.75393C6.56514 7.31746 6.07045 7.83796 6.03603 7.91109C5.98441 8.00143 5.97151 8.12618 5.98441 8.33696C5.99732 8.59506 6.03173 8.694 6.29414 9.21451C6.88777 10.3932 7.67068 11.4299 8.9655 12.7548C10.2517 14.0711 11.5336 15.0519 12.8542 15.7316C13.3231 15.9725 13.4135 16.0069 13.6285 16.0026C13.7748 16.0026 13.9297 15.9725 14.02 15.9252C14.1017 15.8821 14.6351 15.3832 15.203 14.8196C15.9343 14.0926 16.2913 13.77 16.429 13.7098C16.6871 13.5936 17.0226 13.5936 17.2592 13.7098C17.5173 13.8388 20.5586 16.8758 20.6919 17.1425C20.7651 17.2845 20.7952 17.4136 20.7952 17.5985C20.7952 18.0416 20.7048 18.1621 19.4832 19.388C18.2744 20.6011 18.1625 20.6829 17.5173 20.8291C16.8935 20.9668 15.8482 20.8549 14.79 20.5409C13.1769 20.0634 11.0088 18.9192 9.2236 17.6028C5.78654 15.0734 2.83557 11.2062 1.60958 7.63148C1.02455 5.93231 0.960024 4.71493 1.4074 3.81157C1.54506 3.52335 1.67411 3.3771 2.56886 2.46944C3.11948 1.91022 3.64859 1.40261 3.73892 1.33809C4.12608 1.07138 4.52183 1.04127 4.89178 1.25636Z"/>
</svg>
