<svg width="41" height="40" viewBox="0 0 41 40" xmlns="http://www.w3.org/2000/svg">
<path d="M9.00082 15.9902C13.8286 15.9902 17.7423 19.904 17.7423 24.7317C17.7423 29.5594 13.8286 33.4732 9.00082 33.4732C4.17304 33.4732 0.259361 29.5594 0.259361 24.7317L0.220337 23.4829C0.220337 13.8273 8.04769 5.99998 17.7033 5.99998V10.9951C14.3677 10.9951 11.2317 12.2941 8.87306 14.6527C8.41905 15.1068 8.00469 15.5899 7.63091 16.0974C8.07727 16.0271 8.53472 15.9902 9.00082 15.9902ZM31.4789 15.9902C36.3066 15.9902 40.2203 19.904 40.2203 24.7317C40.2203 29.5594 36.3066 33.4732 31.4789 33.4732C26.6512 33.4732 22.7374 29.5594 22.7374 24.7317L22.6984 23.4829C22.6984 13.8273 30.5257 5.99998 40.1813 5.99998V10.9951C36.8458 10.9951 33.7097 12.2941 31.3511 14.6527C30.897 15.1068 30.4827 15.5899 30.1089 16.0974C30.5552 16.0271 31.0127 15.9902 31.4789 15.9902Z"/>
</svg>
