<svg xmlns="http://www.w3.org/2000/svg" viewBox="0 0 20 20">
<g>
	<path d="M9.5,0.5C8.3,0.6,7.3,1.1,6.4,2C5.7,2.7,5.3,3.5,5.1,4.6C5,5,5,6,5.1,6.4c0.2,1,0.6,1.8,1.4,2.6c0.7,0.8,1.6,1.2,2.6,1.4c0.4,0.1,1.4,0.1,1.9,0c1-0.2,1.8-0.6,2.6-1.4c0.8-0.7,1.2-1.6,1.4-2.6C15,6,15,5,14.9,4.6c-0.1-0.7-0.4-1.3-0.8-1.9c-0.2-0.4-1-1.1-1.3-1.3c-0.6-0.4-1.2-0.7-1.9-0.8C10.7,0.5,9.7,0.4,9.5,0.5z M10.9,1.7c0.7,0.2,1.4,0.5,1.9,1c0.5,0.5,0.8,1.1,1.1,1.9c0.1,0.4,0.1,1.4,0,1.8c-0.2,0.8-0.5,1.4-1.1,1.9c-0.5,0.5-1.1,0.8-1.9,1.1c-0.4,0.1-1.4,0.1-1.8,0C8.3,9.1,7.7,8.8,7.2,8.2C5.8,6.8,5.7,4.5,7,3c0.6-0.7,1.5-1.2,2.4-1.3C9.8,1.6,10.6,1.6,10.9,1.7z"/>
	<path d="M8,11.7c-2.1,0.3-4,1.4-5.2,3.3c-0.7,1.1-1.1,2.3-1.2,3.7c0,0.4,0,0.5,0.1,0.6c0.1,0.1,0.1,0.2,0.2,0.2c0.1,0.1,0.2,0.1,8.1,0.1c7.9,0,7.9,0,8.1-0.1c0.1-0.1,0.2-0.1,0.2-0.2c0.1-0.1,0.1-0.2,0.1-0.6c-0.1-1.8-0.8-3.4-2.1-4.8c-1.2-1.2-2.8-2-4.5-2.2C11.3,11.6,8.5,11.6,8,11.7z M11.8,12.8c2.5,0.3,4.5,2,5.2,4.4c0.1,0.4,0.2,1,0.2,1.1v0.1H10H2.8v-0.1c0-0.2,0.2-0.9,0.3-1.3c0.4-1.2,1.2-2.3,2.2-3.1c0.4-0.3,1.2-0.7,1.7-0.9c0.4-0.1,0.8-0.2,1.2-0.3C8.6,12.7,11.4,12.7,11.8,12.8z"/>
</g>
</svg>
