<svg width="52" height="52" viewBox="0 0 52 52" xmlns="http://www.w3.org/2000/svg">
<path d="M25.1401 10.0426C18.8341 10.6914 13.5528 15.0753 11.8005 21.1085C11.3942 22.5152 11.2184 23.8128 11.2184 25.4681C11.2184 27.6328 11.6004 29.5064 12.4432 31.5013C12.6069 31.8833 12.7403 32.2411 12.7403 32.2896C12.7403 32.3381 12.3462 34.3148 11.8671 36.6856C11.3821 39.0504 10.994 40.9907 11.0001 41.0028C11.0183 41.0149 11.4306 40.9361 14.4077 40.3237C15.8084 40.0387 17.5547 39.681 18.2884 39.5354C19.0221 39.3838 19.6587 39.2505 19.7012 39.2323C19.7436 39.2141 19.9195 39.2747 20.0892 39.3596C20.6289 39.6325 21.7506 40.0448 22.5268 40.2631C24.0729 40.6814 25.704 40.8512 27.4564 40.7724C32.8468 40.5117 37.7764 37.3223 40.2988 32.4533C41.1356 30.8404 41.6389 29.2336 41.9178 27.2872C42.033 26.4989 42.0148 24.1281 41.8875 23.2974C41.4509 20.4415 40.408 18.0222 38.6435 15.7666C38.213 15.2209 36.7881 13.7899 36.2363 13.3594C33.9867 11.5949 31.5128 10.5277 28.7479 10.1275C27.9293 10.0063 25.9223 9.95775 25.1401 10.0426ZM28.566 11.5888C30.9065 11.9223 33.0954 12.8379 35.0479 14.2992C35.7937 14.851 37.1458 16.2031 37.6976 16.949C39.1771 18.9317 40.0684 21.0721 40.4322 23.4975C40.5596 24.3464 40.5717 26.2382 40.4565 27.075C39.6743 32.8595 35.6239 37.4617 30.0515 38.9048C28.6812 39.2626 26.5226 39.4202 25.1704 39.2686C23.6121 39.0928 22.0356 38.6502 20.7077 38.0256L19.9862 37.6861L16.439 38.4076C14.4926 38.8078 12.8858 39.1292 12.8798 39.1231C12.8737 39.1171 13.1951 37.5102 13.5952 35.5639L14.3168 32.0167L13.9894 31.3194C12.7464 28.6818 12.3644 25.6197 12.9222 22.7335C13.4497 20.0171 14.8201 17.4583 16.8028 15.4998C19.1736 13.1532 22.2175 11.7707 25.6555 11.4676C26.2012 11.4191 27.8869 11.4857 28.566 11.5888Z"/>
<path d="M20.7137 16.7246C20.5804 16.7731 20.3742 16.858 20.259 16.9186C19.9497 17.0763 18.7795 18.2465 18.5006 18.677C18.155 19.2106 17.9064 19.9382 17.8275 20.6416C17.7366 21.4662 17.8457 23.164 18.0458 24.1645C18.8159 27.936 21.2716 31.1496 24.6853 32.8656C26.4923 33.769 28.2507 34.1753 30.4456 34.1874C31.3309 34.1935 31.6462 34.1753 31.9555 34.0904C32.9499 33.8236 33.4956 33.4901 34.3627 32.623C35.0418 31.9379 35.2661 31.574 35.3753 30.9313C35.4238 30.6342 35.4238 30.428 35.3753 30.1309C35.2479 29.3912 35.0842 29.1608 33.7563 27.8208C32.677 26.7354 32.489 26.5717 32.1131 26.4019C31.7796 26.2442 31.5977 26.1957 31.1915 26.1775C30.3608 26.1351 29.8332 26.3231 29.1905 26.9112C28.6327 27.4145 28.3598 27.5297 27.7171 27.5297C26.9228 27.5297 26.7651 27.4327 25.6373 26.2988C24.6671 25.3165 24.5519 25.1528 24.4428 24.5828C24.3276 23.9765 24.5337 23.4065 25.0976 22.8002C25.898 21.9331 26.0739 20.9023 25.5949 19.8655C25.4311 19.5138 25.2553 19.3137 24.1942 18.2708C22.7026 16.7973 22.5207 16.6882 21.5687 16.6639C21.1806 16.6518 20.8653 16.6761 20.7137 16.7246ZM21.7749 18.101C21.9264 18.1434 22.2903 18.4648 23.0967 19.2652C23.7091 19.8776 24.2488 20.4476 24.2973 20.5385C24.4064 20.7507 24.4064 21.2115 24.2912 21.442C24.2366 21.539 24.0365 21.7936 23.8486 22.0059C22.7996 23.164 22.648 24.8193 23.4787 26.1108C23.8001 26.6141 25.3887 28.2028 25.892 28.5241C27.1835 29.3487 28.8388 29.2093 29.9848 28.1664C30.2031 27.9723 30.4638 27.7662 30.5608 27.7116C30.7913 27.5964 31.246 27.5964 31.4643 27.7055C31.5553 27.7541 32.1252 28.2937 32.7316 28.9061C33.6532 29.8399 33.8412 30.0582 33.8958 30.2704C34.017 30.7252 33.9079 30.9616 33.2712 31.6104C32.8165 32.0773 32.6285 32.2228 32.2101 32.429L31.7008 32.6837L30.5912 32.7019C29.4209 32.7261 28.566 32.6412 27.6564 32.4108C23.7273 31.4164 20.6713 28.415 19.6587 24.5768C19.3919 23.5642 19.2888 22.7395 19.2888 21.6117C19.2949 20.0656 19.4162 19.7381 20.3439 18.7801C21.0472 18.0585 21.2655 17.9555 21.7749 18.101Z"/>
</svg>
