<svg aria-hidden="true" style="width: 0px; height: 0px; overflow: hidden; position: absolute;" xmlns="http://www.w3.org/2000/svg">
    <symbol id="burger_icon" viewBox="0 0 32 32">
      <path d="M1.5,8h29C31.3,8,32,8.7,32,9.5l0,0c0,0.8-0.7,1.5-1.5,1.5h-29C0.7,11,0,10.3,0,9.5l0,0C0,8.7,0.7,8,1.5,8z"/>
      <path d="M1.5,15h29c0.8,0,1.5,0.7,1.5,1.5l0,0c0,0.8-0.7,1.5-1.5,1.5h-29C0.7,18,0,17.3,0,16.5l0,0C0,15.7,0.7,15,1.5,15z"/>
      <path d="M1.5,22h29c0.8,0,1.5,0.7,1.5,1.5l0,0c0,0.8-0.7,1.5-1.5,1.5h-29C0.7,25,0,24.3,0,23.5l0,0C0,22.7,0.7,22,1.5,22z"/>
    </symbol>
    <symbol id="pin_icon" viewBox="0 0 17 17">
      <path d="M14.0788 4.23113C14.0183 4.00434 13.8954 3.76268 13.8045 3.55111C12.7167 0.936887 10.3399 0 8.42078 0C5.85165 0 3.02206 1.72271 2.64429 5.27362V5.99909C2.64429 6.02937 2.65472 6.30134 2.66954 6.43738C2.88131 8.12966 4.21665 9.92817 5.21393 11.6205C6.28686 13.4336 7.40018 15.2171 8.50319 17C9.18332 15.8365 9.86101 14.6578 10.5257 13.5245C10.7068 13.1919 10.9171 12.8595 11.0984 12.542C11.2193 12.3306 11.4502 12.1192 11.5557 11.9226C12.6285 9.95825 14.3555 7.97875 14.3555 6.02933V5.22849C14.3555 5.01715 14.0936 4.2767 14.0788 4.23113ZM8.46781 7.87298C7.71262 7.87298 6.88601 7.49537 6.478 6.45252C6.41721 6.28651 6.42211 5.95384 6.42211 5.92336V5.45492C6.42211 4.12548 7.55093 3.52091 8.53295 3.52091C9.74192 3.52091 10.677 4.48815 10.677 5.69713C10.677 6.90606 9.67678 7.87298 8.46781 7.87298Z" />
    </symbol>
    <symbol id="envelope_icon" viewBox="0 0 17 17">
      <path d="M16 12.3749C16 12.7038 15.9075 13.0086 15.7593 13.2768L11.0232 7.9778L15.708 3.87905C15.8902 4.16825 16 4.50797 16 4.87508V12.3749ZM8.50002 8.93995L15.0187 3.23625C14.7512 3.08981 14.45 3 14.125 3H2.87499C2.54965 3 2.24832 3.08981 1.9819 3.23625L8.50002 8.93995ZM10.3174 8.59489L8.80848 9.91598C8.72022 9.99287 8.61032 10.0313 8.50002 10.0313C8.38965 10.0313 8.27975 9.99287 8.19149 9.91598L6.68225 8.59482L1.88622 13.9616C2.1737 14.1419 2.5106 14.25 2.87496 14.25H14.125C14.4893 14.25 14.8264 14.1419 15.1138 13.9616L10.3174 8.59489ZM1.29208 3.87902C1.10987 4.16822 1 4.50794 1 4.87508V12.375C1 12.7038 1.09206 13.0087 1.24079 13.2769L5.97635 7.97691L1.29208 3.87902Z"/>
    </symbol>
    <symbol id="phone_icon" viewBox="0 0 16 16">
      <path d="M12.1641 10.5836C11.6414 10.0676 10.9888 10.0676 10.4694 10.5836C10.0732 10.9765 9.67699 11.3694 9.28744 11.7689C9.1809 11.8788 9.091 11.9021 8.96115 11.8288C8.70479 11.689 8.43177 11.5758 8.18539 11.4226C7.03673 10.7001 6.07452 9.77123 5.22218 8.72578C4.79934 8.20639 4.42312 7.65037 4.16009 7.02443C4.10682 6.89791 4.11681 6.81468 4.22002 6.71147C4.61622 6.32858 5.00244 5.9357 5.39198 5.54283C5.93469 4.9968 5.93469 4.35754 5.38866 3.80818C5.07902 3.49522 4.76938 3.18891 4.45974 2.87594C4.14011 2.55631 3.82381 2.23335 3.50086 1.91706C2.97813 1.40765 2.32556 1.40765 1.80617 1.92039C1.40663 2.31326 1.02375 2.71612 0.617555 3.10234C0.241327 3.45859 0.0515486 3.89475 0.0115952 4.40416C-0.0516643 5.23319 0.151432 6.01561 0.437765 6.77805C1.02375 8.35621 1.91604 9.75791 2.99811 11.0431C4.45974 12.7811 6.20437 14.1561 8.24532 15.1483C9.16425 15.5944 10.1165 15.9374 11.1519 15.994C11.8644 16.0339 12.4837 15.8541 12.9798 15.2981C13.3194 14.9186 13.7023 14.5723 14.0619 14.2094C14.5946 13.67 14.5979 13.0174 14.0685 12.4847C13.4359 11.8488 12.8 11.2162 12.1641 10.5836Z"/>
      <path d="M11.5284 7.93104L12.7569 7.72128C12.5638 6.5926 12.0311 5.57046 11.2221 4.75807C10.3664 3.9024 9.28431 3.36303 8.09237 3.19656L7.91924 4.43179C8.84149 4.56163 9.68052 4.97782 10.3431 5.64038C10.969 6.26631 11.3785 7.05872 11.5284 7.93104Z"/>
      <path d="M13.4494 2.59031C12.031 1.17197 10.2364 0.276344 8.25542 0L8.08229 1.23523C9.79363 1.47495 11.3452 2.25071 12.5704 3.47262C13.7324 4.63459 14.4948 6.10288 14.7712 7.71766L15.9997 7.50791C15.6768 5.63676 14.7945 3.93874 13.4494 2.59031Z"/>
    </symbol>
    <symbol id="logo_arrow" viewBox="0 0 5 106">
      <path d="M2.5,106l-2.2-4.3h4.3L2.5,106z"/>
      <rect x="2" y="0" width="1" height="101.7"/>
    </symbol>
    <symbol id="cart_icon" viewBox="0 0 20 20">
      <path d="M9.3,0.5C7.9,0.7,7.1,1.4,6.8,2.6c0,0.2-0.1,0.4-0.1,0.4l0,0.1H5.4c-0.9,0-1.3,0-1.5,0.1C3.2,3.4,2.6,4.1,2.4,4.9C2.4,5.2,1.3,17.2,1.3,17.6c0,0.9,0.7,1.7,1.6,1.9c0.2,0.1,1.1,0.1,7.2,0.1c7.6,0,7.2,0,7.7-0.3c0.3-0.2,0.7-0.6,0.9-0.9c0.1-0.1,0.1-0.4,0.2-0.5c0-0.3,0-0.7-0.5-6.7c-0.6-6.8-0.6-6.6-0.9-7.1C17,3.7,16.5,3.3,16,3.2c-0.1,0-0.8,0-1.4,0c-1.3,0-1.2,0-1.2-0.2c0-0.1-0.1-0.3-0.1-0.5c-0.3-1-1-1.6-2.1-1.9C10.7,0.5,9.7,0.4,9.3,0.5z M10.7,1.9c0.4,0.1,0.7,0.2,0.9,0.5C11.8,2.6,12,3,12,3.1c0,0.1-0.3,0.1-2,0.1c-1.7,0-2,0-2-0.1c0,0,0-0.2,0.1-0.3C8.3,2.5,8.6,2.2,8.9,2C9.3,1.8,10.1,1.8,10.7,1.9z M15.9,4.6c0.3,0.2,0.3-0.2,0.9,6.7c0.6,6.2,0.6,6.2,0.5,6.4c0,0.1-0.1,0.2-0.2,0.3l-0.1,0.1H10H3.1L2.9,18c-0.1-0.1-0.2-0.2-0.2-0.3c-0.1-0.2-0.1-0.2,0.5-6.4c0.6-6.9,0.6-6.5,0.9-6.7l0.2-0.1H10h5.7L15.9,4.6z"/>
      <path d="M7,6.6C6.8,6.7,6.7,6.9,6.6,7.1c0,0.1,0,0.4,0,0.8c0.1,1.4,0.3,2.5,0.8,3.4c0.2,0.3,0.8,0.9,1.1,1.1c0.5,0.3,0.8,0.3,1.5,0.3c0.5,0,0.6,0,0.9-0.1c0.5-0.2,0.8-0.4,1.2-0.8c0.8-0.8,1.2-2.3,1.2-4.1c0-0.8,0-0.8-0.3-1c-0.2-0.1-0.6-0.1-0.7,0c-0.3,0.2-0.3,0.3-0.3,1c-0.1,2.5-0.7,3.6-2,3.6s-1.9-1.1-2-3.6c0-0.8-0.1-0.8-0.3-1C7.5,6.6,7.2,6.6,7,6.6z"/>
    </symbol>
    <symbol id="user_icon" viewBox="0 0 20 20">
      <path d="M9.5,0.5C8.3,0.6,7.3,1.1,6.4,2C5.7,2.7,5.3,3.5,5.1,4.6C5,5,5,6,5.1,6.4c0.2,1,0.6,1.8,1.4,2.6c0.7,0.8,1.6,1.2,2.6,1.4c0.4,0.1,1.4,0.1,1.9,0c1-0.2,1.8-0.6,2.6-1.4c0.8-0.7,1.2-1.6,1.4-2.6C15,6,15,5,14.9,4.6c-0.1-0.7-0.4-1.3-0.8-1.9c-0.2-0.4-1-1.1-1.3-1.3c-0.6-0.4-1.2-0.7-1.9-0.8C10.7,0.5,9.7,0.4,9.5,0.5z M10.9,1.7c0.7,0.2,1.4,0.5,1.9,1c0.5,0.5,0.8,1.1,1.1,1.9c0.1,0.4,0.1,1.4,0,1.8c-0.2,0.8-0.5,1.4-1.1,1.9c-0.5,0.5-1.1,0.8-1.9,1.1c-0.4,0.1-1.4,0.1-1.8,0C8.3,9.1,7.7,8.8,7.2,8.2C5.8,6.8,5.7,4.5,7,3c0.6-0.7,1.5-1.2,2.4-1.3C9.8,1.6,10.6,1.6,10.9,1.7z"/>
      <path d="M8,11.7c-2.1,0.3-4,1.4-5.2,3.3c-0.7,1.1-1.1,2.3-1.2,3.7c0,0.4,0,0.5,0.1,0.6c0.1,0.1,0.1,0.2,0.2,0.2c0.1,0.1,0.2,0.1,8.1,0.1c7.9,0,7.9,0,8.1-0.1c0.1-0.1,0.2-0.1,0.2-0.2c0.1-0.1,0.1-0.2,0.1-0.6c-0.1-1.8-0.8-3.4-2.1-4.8c-1.2-1.2-2.8-2-4.5-2.2C11.3,11.6,8.5,11.6,8,11.7z M11.8,12.8c2.5,0.3,4.5,2,5.2,4.4c0.1,0.4,0.2,1,0.2,1.1v0.1H10H2.8v-0.1c0-0.2,0.2-0.9,0.3-1.3c0.4-1.2,1.2-2.3,2.2-3.1c0.4-0.3,1.2-0.7,1.7-0.9c0.4-0.1,0.8-0.2,1.2-0.3C8.6,12.7,11.4,12.7,11.8,12.8z"/>
    </symbol>
    <symbol id="close_icon" viewBox="0 0 36 36">
      <polygon points="32.6,35.4 18,20.8 3.4,35.4 0.6,32.6 15.2,18 0.6,3.4 3.4,0.6 18,15.2 32.6,0.6 35.4,3.4 20.8,18 35.4,32.6"/>
    </symbol>
    <symbol id="vk_icon" viewBox="0 0 52 52">
      <path d="M23.2557 17.0192C22.6558 17.0625 21.8889 17.18 21.5859 17.2727C21.0602 17.4335 20.4108 18.0149 20.5283 18.2128C20.553 18.2437 20.6705 18.2932 20.8004 18.3179C21.3694 18.4231 21.8456 18.7447 22.0621 19.1652C22.4269 19.8826 22.5939 22.1338 22.396 23.7232C22.2661 24.7746 22.2105 25.0158 22.0126 25.3992C21.4993 26.4197 20.2995 25.5847 18.9945 23.2965C18.5245 22.4739 17.2134 19.8579 16.9227 19.159C16.564 18.3117 16.4527 18.1571 16.0507 17.953L15.7106 17.7799L13.144 17.7984C10.8248 17.817 10.5588 17.8293 10.3795 17.9283C10.0888 18.0829 9.96513 18.2994 10.0084 18.5777C10.0703 19.0663 11.5484 22.1585 12.7915 24.4035C14.2943 27.1185 16.2795 29.9386 17.7143 31.4106C18.9636 32.6908 20.887 33.94 22.4393 34.4781C23.4659 34.8368 24.0349 34.9234 25.6676 34.9605C27.2818 34.9976 27.7456 34.9481 28.092 34.7131C28.3703 34.5214 28.4569 34.2554 28.5125 33.4329C28.562 32.6165 28.7228 31.9177 28.9393 31.5466C29.1372 31.2188 29.5515 30.8354 29.7371 30.8292C30.3617 30.7983 30.7142 31.058 32.0253 32.53C33.2561 33.9091 33.7075 34.3111 34.3878 34.6389C34.697 34.7811 35.0681 34.9296 35.2227 34.9667C35.5938 35.0533 40.6033 34.9543 40.9249 34.8615C41.2465 34.7626 41.5928 34.4224 41.599 34.1998C41.6175 33.5999 41.5495 33.3525 41.2094 32.8206C40.6713 31.9795 39.9786 31.1941 38.4016 29.6294C36.6452 27.8916 36.5277 27.7308 36.5215 27.1494C36.5215 26.6609 36.7503 26.2898 38.2903 24.2489C40.461 21.3731 41.3269 19.9816 41.5681 19.0044C41.7103 18.4292 41.6299 18.1509 41.265 17.9592C40.9187 17.7861 40.3992 17.7675 37.1461 17.8293L34.5919 17.8788L34.394 18.1015C34.2889 18.2252 34.0786 18.6271 33.9302 18.9982C33.1571 20.9278 31.6481 23.5748 30.6214 24.7993C30.2195 25.2755 29.5948 25.7641 29.3907 25.7641C29.1001 25.7641 28.8589 25.5786 28.6795 25.2075L28.5125 24.8673L28.5311 21.6576C28.5434 18.8003 28.5373 18.4107 28.4445 18.1324C28.2342 17.483 27.9683 17.2913 27.0777 17.1305C26.552 17.0377 24.0287 16.9635 23.2557 17.0192Z"/>
    </symbol>
    <symbol id="wa_icon" viewBox="0 0 52 52">
      <path d="M25.1401 10.0426C18.8341 10.6914 13.5528 15.0753 11.8005 21.1085C11.3942 22.5152 11.2184 23.8128 11.2184 25.4681C11.2184 27.6328 11.6004 29.5064 12.4432 31.5013C12.6069 31.8833 12.7403 32.2411 12.7403 32.2896C12.7403 32.3381 12.3462 34.3148 11.8671 36.6856C11.3821 39.0504 10.994 40.9907 11.0001 41.0028C11.0183 41.0149 11.4306 40.9361 14.4077 40.3237C15.8084 40.0387 17.5547 39.681 18.2884 39.5354C19.0221 39.3838 19.6587 39.2505 19.7012 39.2323C19.7436 39.2141 19.9195 39.2747 20.0892 39.3596C20.6289 39.6325 21.7506 40.0448 22.5268 40.2631C24.0729 40.6814 25.704 40.8512 27.4564 40.7724C32.8468 40.5117 37.7764 37.3223 40.2988 32.4533C41.1356 30.8404 41.6389 29.2336 41.9178 27.2872C42.033 26.4989 42.0148 24.1281 41.8875 23.2974C41.4509 20.4415 40.408 18.0222 38.6435 15.7666C38.213 15.2209 36.7881 13.7899 36.2363 13.3594C33.9867 11.5949 31.5128 10.5277 28.7479 10.1275C27.9293 10.0063 25.9223 9.95775 25.1401 10.0426ZM28.566 11.5888C30.9065 11.9223 33.0954 12.8379 35.0479 14.2992C35.7937 14.851 37.1458 16.2031 37.6976 16.949C39.1771 18.9317 40.0684 21.0721 40.4322 23.4975C40.5596 24.3464 40.5717 26.2382 40.4565 27.075C39.6743 32.8595 35.6239 37.4617 30.0515 38.9048C28.6812 39.2626 26.5226 39.4202 25.1704 39.2686C23.6121 39.0928 22.0356 38.6502 20.7077 38.0256L19.9862 37.6861L16.439 38.4076C14.4926 38.8078 12.8858 39.1292 12.8798 39.1231C12.8737 39.1171 13.1951 37.5102 13.5952 35.5639L14.3168 32.0167L13.9894 31.3194C12.7464 28.6818 12.3644 25.6197 12.9222 22.7335C13.4497 20.0171 14.8201 17.4583 16.8028 15.4998C19.1736 13.1532 22.2175 11.7707 25.6555 11.4676C26.2012 11.4191 27.8869 11.4857 28.566 11.5888Z"/>
      <path d="M20.7137 16.7246C20.5804 16.7731 20.3742 16.858 20.259 16.9186C19.9497 17.0763 18.7795 18.2465 18.5006 18.677C18.155 19.2106 17.9064 19.9382 17.8275 20.6416C17.7366 21.4662 17.8457 23.164 18.0458 24.1645C18.8159 27.936 21.2716 31.1496 24.6853 32.8656C26.4923 33.769 28.2507 34.1753 30.4456 34.1874C31.3309 34.1935 31.6462 34.1753 31.9555 34.0904C32.9499 33.8236 33.4956 33.4901 34.3627 32.623C35.0418 31.9379 35.2661 31.574 35.3753 30.9313C35.4238 30.6342 35.4238 30.428 35.3753 30.1309C35.2479 29.3912 35.0842 29.1608 33.7563 27.8208C32.677 26.7354 32.489 26.5717 32.1131 26.4019C31.7796 26.2442 31.5977 26.1957 31.1915 26.1775C30.3608 26.1351 29.8332 26.3231 29.1905 26.9112C28.6327 27.4145 28.3598 27.5297 27.7171 27.5297C26.9228 27.5297 26.7651 27.4327 25.6373 26.2988C24.6671 25.3165 24.5519 25.1528 24.4428 24.5828C24.3276 23.9765 24.5337 23.4065 25.0976 22.8002C25.898 21.9331 26.0739 20.9023 25.5949 19.8655C25.4311 19.5138 25.2553 19.3137 24.1942 18.2708C22.7026 16.7973 22.5207 16.6882 21.5687 16.6639C21.1806 16.6518 20.8653 16.6761 20.7137 16.7246ZM21.7749 18.101C21.9264 18.1434 22.2903 18.4648 23.0967 19.2652C23.7091 19.8776 24.2488 20.4476 24.2973 20.5385C24.4064 20.7507 24.4064 21.2115 24.2912 21.442C24.2366 21.539 24.0365 21.7936 23.8486 22.0059C22.7996 23.164 22.648 24.8193 23.4787 26.1108C23.8001 26.6141 25.3887 28.2028 25.892 28.5241C27.1835 29.3487 28.8388 29.2093 29.9848 28.1664C30.2031 27.9723 30.4638 27.7662 30.5608 27.7116C30.7913 27.5964 31.246 27.5964 31.4643 27.7055C31.5553 27.7541 32.1252 28.2937 32.7316 28.9061C33.6532 29.8399 33.8412 30.0582 33.8958 30.2704C34.017 30.7252 33.9079 30.9616 33.2712 31.6104C32.8165 32.0773 32.6285 32.2228 32.2101 32.429L31.7008 32.6837L30.5912 32.7019C29.4209 32.7261 28.566 32.6412 27.6564 32.4108C23.7273 31.4164 20.6713 28.415 19.6587 24.5768C19.3919 23.5642 19.2888 22.7395 19.2888 21.6117C19.2949 20.0656 19.4162 19.7381 20.3439 18.7801C21.0472 18.0585 21.2655 17.9555 21.7749 18.101Z"/>
    </symbol>
    <symbol id="arrow_left" viewBox="0 0 42 42">
      <path d="M15.75 22.5005C16.5784 22.5005 17.25 21.8289 17.25 21.0005C17.25 20.1721 16.5784 19.5005 15.75 19.5005V22.5005ZM13.9393 19.9398C13.3536 20.5256 13.3536 21.4754 13.9393 22.0611L23.4853 31.6071C24.0711 32.1929 25.0208 32.1929 25.6066 31.6071C26.1924 31.0213 26.1924 30.0716 25.6066 29.4858L17.1213 21.0005L25.6066 12.5152C26.1924 11.9294 26.1924 10.9797 25.6066 10.3939C25.0208 9.8081 24.0711 9.8081 23.4853 10.3939L13.9393 19.9398ZM15.75 19.5005H15V22.5005H15.75V19.5005Z"/>
    </symbol>
    <symbol id="arrow_right" viewBox="0 0 42 42">
      <path d="M26.25 19.5005C25.4216 19.5005 24.75 20.1721 24.75 21.0005C24.75 21.8289 25.4216 22.5005 26.25 22.5005V19.5005ZM28.0607 22.0611C28.6464 21.4754 28.6464 20.5256 28.0607 19.9398L18.5147 10.3939C17.9289 9.8081 16.9792 9.8081 16.3934 10.3939C15.8076 10.9797 15.8076 11.9294 16.3934 12.5152L24.8787 21.0005L16.3934 29.4858C15.8076 30.0716 15.8076 31.0213 16.3934 31.6071C16.9792 32.1929 17.9289 32.1929 18.5147 31.6071L28.0607 22.0611ZM26.25 22.5005H27V19.5005H26.25V22.5005Z"/>
    </symbol>
    <symbol id="plus" viewBox="0 0 15 15">
      <rect x="7" width="1" height="15"/>
      <rect y="7" width="15" height="1"/>
    </symbol>
    <symbol id="minus" viewBox="0 0 15 15">
      <rect y="7" width="15" height="1"/>
    </symbol>
</svg>
