<svg width="82" height="82" viewBox="0 0 82 82" fill="none" xmlns="http://www.w3.org/2000/svg">
<path d="M53.7205 14.0303C53.7205 21.2082 47.9572 27.0105 40.8681 27.0105C33.7789 27.0105 28.0157 21.2082 28.0157 14.0303C28.0157 6.85238 33.7789 1.05 40.8681 1.05C47.9572 1.05 53.7205 6.85238 53.7205 14.0303Z" stroke="#EBCB9A" stroke-width="2.1"/>
<path d="M34.9952 14.696L39.1299 18.8688L46.8002 11.1279" stroke="#EBCB9A" stroke-width="2.1" stroke-linecap="round" stroke-linejoin="round"/>
<path d="M1.19978 45.5365V40.7589C1.19978 40.7589 9.28954 40.7589 16.4804 40.7589C20.3156 38.0375 21.3899 35.5354 24.8698 34.2881C27.9259 34.2881 31.8809 34.2881 34.997 34.409M34.997 34.409C45.3039 34.2878 49.7383 34.4092 57.7082 34.409C61.3559 36.2265 62.0827 38.3402 65.0789 40.1544C71.1911 41.7873 80 40.8799 80 40.8799V63.7396C80 63.7396 68.6743 62.8929 65.0789 63.7396C59.8655 68.3359 56.6895 71.6016 51.4761 76.8629C44.3451 84.0595 39.3714 77.0771 42.7272 73.7182M34.997 34.409C37.6414 35.212 38.6795 34.8965 41.1692 36.1023C45.3039 40.7589 52.9742 47.9555 52.9742 47.9555C50.817 50.9792 46.0829 51.9594 42.4276 49.3464C37.4573 45.7934 37.2741 45.2584 33.7386 45.1736M29.2443 45.1736C30.6624 45.1736 32.7421 45.1498 33.7386 45.1736M33.7386 45.1736C33.7386 45.1736 28.5252 50.5562 21.574 57.6315C19.2889 59.9574 18.5673 62.1638 18.8531 63.8003M26.6675 64.7074C29.8502 61.4246 33.7386 57.6315 33.7386 57.6315M26.6675 64.7074C22.4129 70.3316 28.3454 75.8348 33.7386 70.9363M26.6675 64.7074C22.9638 67.7901 19.3549 66.6742 18.8531 63.8003M33.7386 70.9363C37.2254 67.4174 41.7684 62.8929 41.7684 62.8929M33.7386 70.9363C32.2405 74.8068 36.504 79.9472 42.7272 73.7182M42.7272 73.7182C45.5822 70.8605 48.7795 67.8521 48.7795 67.8521M18.8531 63.8003H1.19978V58.4784" stroke="#EBCB9A" stroke-width="2.1" stroke-linecap="round" stroke-linejoin="round"/>
<ellipse cx="1.43818" cy="52.3713" rx="1.43818" ry="1.45141" fill="#EBCB9A"/>
</svg>
