<svg width="42" height="42" viewBox="0 0 42 42" xmlns="http://www.w3.org/2000/svg">
<path d="M15.75 22.5005C16.5784 22.5005 17.25 21.8289 17.25 21.0005C17.25 20.1721 16.5784 19.5005 15.75 19.5005V22.5005ZM13.9393 19.9398C13.3536 20.5256 13.3536 21.4754 13.9393 22.0611L23.4853 31.6071C24.0711 32.1929 25.0208 32.1929 25.6066 31.6071C26.1924 31.0213 26.1924 30.0716 25.6066 29.4858L17.1213 21.0005L25.6066 12.5152C26.1924 11.9294 26.1924 10.9797 25.6066 10.3939C25.0208 9.8081 24.0711 9.8081 23.4853 10.3939L13.9393 19.9398ZM15.75 19.5005H15V22.5005H15.75V19.5005Z"/>
</svg>
