<svg xmlns="http://www.w3.org/2000/svg" viewBox="0 0 20 20">
<g>
	<path d="M9.3,0.5C7.9,0.7,7.1,1.4,6.8,2.6c0,0.2-0.1,0.4-0.1,0.4l0,0.1H5.4c-0.9,0-1.3,0-1.5,0.1C3.2,3.4,2.6,4.1,2.4,4.9C2.4,5.2,1.3,17.2,1.3,17.6c0,0.9,0.7,1.7,1.6,1.9c0.2,0.1,1.1,0.1,7.2,0.1c7.6,0,7.2,0,7.7-0.3c0.3-0.2,0.7-0.6,0.9-0.9c0.1-0.1,0.1-0.4,0.2-0.5c0-0.3,0-0.7-0.5-6.7c-0.6-6.8-0.6-6.6-0.9-7.1C17,3.7,16.5,3.3,16,3.2c-0.1,0-0.8,0-1.4,0c-1.3,0-1.2,0-1.2-0.2c0-0.1-0.1-0.3-0.1-0.5c-0.3-1-1-1.6-2.1-1.9C10.7,0.5,9.7,0.4,9.3,0.5z M10.7,1.9c0.4,0.1,0.7,0.2,0.9,0.5C11.8,2.6,12,3,12,3.1c0,0.1-0.3,0.1-2,0.1c-1.7,0-2,0-2-0.1c0,0,0-0.2,0.1-0.3C8.3,2.5,8.6,2.2,8.9,2C9.3,1.8,10.1,1.8,10.7,1.9z M15.9,4.6c0.3,0.2,0.3-0.2,0.9,6.7c0.6,6.2,0.6,6.2,0.5,6.4c0,0.1-0.1,0.2-0.2,0.3l-0.1,0.1H10H3.1L2.9,18c-0.1-0.1-0.2-0.2-0.2-0.3c-0.1-0.2-0.1-0.2,0.5-6.4c0.6-6.9,0.6-6.5,0.9-6.7l0.2-0.1H10h5.7L15.9,4.6z"/>
	<path d="M7,6.6C6.8,6.7,6.7,6.9,6.6,7.1c0,0.1,0,0.4,0,0.8c0.1,1.4,0.3,2.5,0.8,3.4c0.2,0.3,0.8,0.9,1.1,1.1c0.5,0.3,0.8,0.3,1.5,0.3c0.5,0,0.6,0,0.9-0.1c0.5-0.2,0.8-0.4,1.2-0.8c0.8-0.8,1.2-2.3,1.2-4.1c0-0.8,0-0.8-0.3-1c-0.2-0.1-0.6-0.1-0.7,0c-0.3,0.2-0.3,0.3-0.3,1c-0.1,2.5-0.7,3.6-2,3.6s-1.9-1.1-2-3.6c0-0.8-0.1-0.8-0.3-1C7.5,6.6,7.2,6.6,7,6.6z"/>
</g>
</svg>
