<svg xmlns="http://www.w3.org/2000/svg" viewBox="0 0 30 30">
<path d="M2.3,4.1C1.4,4.2,0.6,5.1,0.4,6c-0.1,0.4-0.1,17.6,0,18c0.2,1,1,1.8,1.9,1.9c0.4,0.1,24.9,0.1,25.3,0c1-0.2,1.8-1,1.9-1.9c0.1-0.4,0.1-17.6,0-18c-0.2-1-1-1.8-1.9-1.9C27.3,4,2.7,4,2.3,4.1z M27.3,5.3c0.1,0-1.2,1.3-8.7,8.1c-3,2.7-2.9,2.7-3.2,2.8c-0.3,0.1-0.7,0.1-1,0c-0.2-0.1-2.9-2.5-9.3-8.4C3,5.7,2.6,5.3,2.7,5.3C2.8,5.2,27.2,5.2,27.3,5.3z M6.4,10.5c2.6,2.4,4.8,4.4,4.8,4.4c0,0-0.5,0.5-1.2,1.1c-1.7,1.5-3.7,3.3-6.2,5.7c-1.2,1.1-2.2,2-2.2,2.1c0,0-0.1,0-0.1-0.1c0-0.2,0-17.2,0-17.4c0-0.1,0-0.2,0.1-0.2C1.6,6.1,3.8,8.1,6.4,10.5z M28.5,15c0,4.7,0,8.7,0,8.7c0,0.1-0.1,0.1-0.1,0.1c0,0-1-0.9-2.2-2.1c-2.5-2.4-4.6-4.3-6.2-5.7c-0.7-0.6-1.2-1.1-1.2-1.1c0,0,2.2-2,4.8-4.4c4.4-4,4.8-4.4,4.8-4.3C28.4,6.3,28.5,10.2,28.5,15z M12.9,16.4c1,0.9,1.6,1.1,2.4,1c0.6-0.1,1-0.3,1.7-1c0.6-0.5,0.7-0.6,0.8-0.5c0.7,0.5,3.9,3.4,7.2,6.5c2.2,2,2.5,2.3,2.3,2.4c-0.1,0-5.6,0-12.4,0c-6.7,0-12.3,0-12.4,0c-0.1,0,0.2-0.3,2.3-2.4c1.4-1.3,3-2.8,3.5-3.3c1.1-1,3.7-3.3,3.7-3.3C12.2,15.8,12.5,16.1,12.9,16.4z"/>
</svg>
