<svg width="30" height="22" viewBox="0 0 30 22" xmlns="http://www.w3.org/2000/svg">
<path d="M1.9509 0.0588093C1.03418 0.236425 0.237775 1.05002 0.0601599 2.00112C-0.0200533 2.41364 -0.0200533 19.5735 0.0601599 19.9975C0.243505 20.9658 1.03418 21.7565 2.0082 21.9398C2.42645 22.0201 26.9144 22.0201 27.3327 21.9398C28.3067 21.7565 29.0974 20.9658 29.2807 19.9975C29.3609 19.5735 29.3609 2.41937 29.2807 1.99539C29.0974 1.0271 28.3067 0.236425 27.3327 0.0530796C26.9488 -0.0214043 2.32332 -0.0156746 1.9509 0.0588093ZM27.0118 1.25055C27.1207 1.29066 25.8086 2.51677 18.3201 9.32344C15.3064 12.0679 15.4153 11.9762 15.1574 12.0908C14.8652 12.2283 14.4756 12.2283 14.1777 12.0908C13.96 11.9934 11.2671 9.56981 4.85004 3.69705C2.68428 1.71464 2.24311 1.28493 2.32905 1.25055C2.47229 1.19325 26.8686 1.19325 27.0118 1.25055ZM6.11053 6.50452C8.75757 8.91665 10.9233 10.9105 10.9348 10.9334C10.9405 10.9621 10.4134 11.4548 9.76023 12.0335C8.11013 13.4945 6.08761 15.3566 3.53798 17.7516C2.34624 18.8745 1.35503 19.797 1.32638 19.8085C1.29774 19.8199 1.26336 19.7684 1.24044 19.6939C1.1946 19.522 1.1946 2.52823 1.24044 2.29332C1.26336 2.19592 1.28628 2.11571 1.29201 2.11571C1.30347 2.11571 3.46922 4.08666 6.11053 6.50452ZM28.1291 10.9678C28.1291 15.6947 28.1176 19.6194 28.1004 19.6939C28.0775 19.7684 28.0431 19.8199 28.0145 19.8085C27.9858 19.797 26.9946 18.8745 25.8029 17.7516C23.2532 15.3566 21.2307 13.4945 19.5806 12.0335C18.9275 11.4548 18.4003 10.9621 18.4061 10.9334C18.4175 10.9105 20.589 8.91092 23.2361 6.49306C27.6077 2.49958 28.0489 2.11571 28.0832 2.23603C28.1061 2.31051 28.1233 6.24096 28.1291 10.9678ZM12.5906 12.4059C13.5704 13.2825 14.1834 13.5289 15.0314 13.3971C15.5929 13.3112 16.0054 13.0705 16.756 12.4002C17.3404 11.8731 17.4435 11.8043 17.5295 11.8673C18.217 12.4059 21.3969 15.2993 24.6856 18.3818C26.8628 20.4215 27.1493 20.7137 27.0347 20.7481C26.9602 20.7653 21.3969 20.7825 14.6704 20.7825C7.94398 20.7825 2.38061 20.7653 2.30613 20.7481C2.19154 20.7137 2.48375 20.4215 4.65523 18.3818C6.01886 17.1041 7.61166 15.6202 8.19608 15.0873C9.29614 14.0732 11.8572 11.7986 11.8916 11.7986C11.9031 11.7986 12.2182 12.0679 12.5906 12.4059Z"/>
</svg>
