<svg xmlns="http://www.w3.org/2000/svg" viewBox="0 0 22 22">
<path d="M4.2,0.5c-0.3,0.1-0.7,0.3-1,0.6c-0.4,0.3-1.8,1.7-2,2c-0.9,1.2-0.9,3,0,5.4c1.1,2.9,3.1,5.8,5.7,8.2c3.5,3.3,8.3,5.4,10.7,4.8c0.4-0.1,1-0.4,1.2-0.6c0.3-0.2,2.1-2.1,2.3-2.4c0.3-0.5,0.4-1.1,0.3-1.6c-0.1-0.6-0.2-0.6-2-2.4c-1.8-1.8-1.9-1.9-2.5-2c-0.5-0.1-1,0-1.4,0.3c-0.1,0.1-0.6,0.5-1.1,1l-0.9,0.9l-0.3-0.2c-0.7-0.4-1.3-0.7-2.1-1.4c-0.8-0.7-2-1.9-2.6-2.7C8,9.8,7.3,8.6,7.3,8.5c0,0,0.3-0.4,0.7-0.7c0.8-0.8,1.1-1.2,1.3-1.5c0.2-0.4,0.3-1,0.1-1.5C9.3,4.2,9.2,4.1,7.6,2.5C6.1,0.9,5.8,0.7,5.4,0.6C5.1,0.5,4.5,0.4,4.2,0.5z M5.2,1.7C5.3,1.7,6,2.4,6.8,3.2c1.6,1.6,1.7,1.7,1.7,2.1c0,0.4-0.1,0.5-1.2,1.6C6.8,7.5,6.3,8,6.3,8c0,0.1-0.1,0.2,0,0.4c0,0.2,0,0.3,0.3,0.8c0.6,1.1,1.3,2.1,2.6,3.4c1.2,1.3,2.5,2.2,3.7,2.9c0.4,0.2,0.5,0.3,0.7,0.3c0.1,0,0.3,0,0.4-0.1c0.1,0,0.6-0.5,1.1-1.1c0.7-0.7,1-1,1.2-1.1c0.2-0.1,0.6-0.1,0.8,0c0.2,0.1,3.2,3,3.3,3.3c0.1,0.1,0.1,0.3,0.1,0.4c0,0.4-0.1,0.5-1.3,1.7c-1.2,1.2-1.3,1.2-1.9,1.4c-0.6,0.1-1.6,0-2.6-0.3c-1.5-0.5-3.6-1.6-5.3-2.8C6,14.9,3.2,11.2,2,7.8C1.5,6.1,1.4,5,1.8,4.1C2,3.8,2.1,3.7,3,2.8c0.5-0.5,1-1,1.1-1.1C4.5,1.5,4.8,1.5,5.2,1.7z"/>
</svg>
