<svg width="19" height="22" viewBox="0 0 19 22" xmlns="http://www.w3.org/2000/svg">
<path d="M8.32942 0.0468006C5.9375 0.287714 3.60581 1.5439 2.0915 3.41528C0.985876 4.77902 0.310459 6.32345 0.0695464 8.05716C-0.012192 8.62502 -0.025098 9.80378 0.0480363 10.32C0.319063 12.3291 1.29992 14.3854 2.96911 16.4504C4.08333 17.8227 5.48579 19.2037 8.15734 21.544C8.2778 21.6472 8.4972 21.7935 8.65207 21.8666C8.89729 21.9828 8.97903 22 9.29738 22C9.61573 22 9.69746 21.9828 9.94268 21.8666C10.0976 21.7935 10.3213 21.6472 10.4374 21.544C13.109 19.2037 14.5114 17.8227 15.6256 16.4504C17.2948 14.3854 18.2757 12.3291 18.5467 10.32C18.6199 9.80378 18.6069 8.62502 18.5252 8.05716C18.1466 5.35119 16.6624 3.01089 14.3695 1.50088C12.6486 0.36515 10.4374 -0.168301 8.32942 0.0468006ZM10.545 1.38903C13.4488 1.86655 15.8537 3.85839 16.8388 6.59877C17.3335 7.96682 17.4454 9.53705 17.1486 10.832C16.7958 12.3463 16.0515 13.8004 14.8255 15.3749C13.8575 16.6182 12.7304 17.7668 10.6568 19.621C9.66305 20.5115 9.39202 20.7309 9.29738 20.7309C9.20273 20.7309 8.9317 20.5115 7.93794 19.621C4.72433 16.7472 3.24444 15.0178 2.21195 12.9313C1.54944 11.5934 1.29132 10.5609 1.29132 9.26172C1.29132 5.89324 3.42942 2.89474 6.65163 1.7418C7.2238 1.5396 7.97666 1.38043 8.7166 1.31159C9.03495 1.28148 10.175 1.3288 10.545 1.38903Z"/>
<path d="M8.65209 4.90368C7.41741 5.12308 6.34191 5.87593 5.72672 6.94714C5.34384 7.61825 5.18897 8.29797 5.22338 9.15837C5.2664 10.2081 5.65789 11.1029 6.39783 11.8471C7.08616 12.5355 7.89064 12.9183 8.8801 13.0345C9.18984 13.0689 9.40495 13.0689 9.71899 13.0345C10.7042 12.9183 11.5086 12.5355 12.197 11.8471C12.7003 11.3438 13.0272 10.7845 13.238 10.0747C13.3757 9.61869 13.423 8.80131 13.3456 8.29797C13.1993 7.36013 12.6745 6.4481 11.9216 5.81571C11.5344 5.48875 10.7988 5.11017 10.3084 4.98111C9.91258 4.87787 9.02637 4.83485 8.65209 4.90368ZM9.87387 6.21149C10.9193 6.43089 11.784 7.27409 12.0249 8.29797C12.1109 8.65504 12.1109 9.27453 12.0292 9.62299C11.913 10.1091 11.6807 10.5178 11.2978 10.905C10.7085 11.4987 10.1019 11.7568 9.29739 11.7568C8.49292 11.7568 7.88633 11.4987 7.29696 10.905C6.91408 10.5178 6.68177 10.1091 6.56561 9.62299C6.48388 9.27453 6.48388 8.65504 6.56992 8.29797C6.90977 6.84389 8.40688 5.90175 9.87387 6.21149Z"/>
</svg>
