<?xml version="1.0" encoding="utf-8"?>
<!-- Generator: Adobe Illustrator 19.2.1, SVG Export Plug-In . SVG Version: 6.00 Build 0)  -->
<svg version="1.1" id="Слой_1" xmlns="http://www.w3.org/2000/svg" xmlns:xlink="http://www.w3.org/1999/xlink" x="0px" y="0px"
	 viewBox="0 0 22 22" style="enable-background:new 0 0 22 22;" xml:space="preserve">
<style type="text/css">
	.st0{fill:#0D0F0F;}
</style>
<g>
	<path class="st0" d="M10.1,0.5C7.8,0.8,5.6,2,4.1,3.8C3.1,5.1,2.4,6.5,2.2,8.2c-0.1,0.5-0.1,1.7,0,2.2c0.3,1.9,1.2,3.9,2.8,5.9
		c1.1,1.3,2.4,2.6,5,4.9c0.1,0.1,0.3,0.2,0.5,0.3c0.2,0.1,0.3,0.1,0.6,0.1s0.4,0,0.6-0.1c0.1-0.1,0.4-0.2,0.5-0.3
		c2.6-2.2,3.9-3.6,5-4.9c1.6-2,2.5-3.9,2.8-5.9c0.1-0.5,0.1-1.6,0-2.2c-0.4-2.6-1.8-4.8-4-6.3C14.2,0.8,12.1,0.3,10.1,0.5z
		 M12.2,1.8c2.8,0.5,5.1,2.4,6,5c0.5,1.3,0.6,2.8,0.3,4c-0.3,1.4-1,2.8-2.2,4.3c-0.9,1.2-2,2.3-4,4.1c-0.9,0.9-1.2,1.1-1.3,1.1
		c-0.1,0-0.3-0.2-1.3-1.1c-3.1-2.7-4.5-4.4-5.5-6.4c-0.6-1.3-0.9-2.3-0.9-3.5c0-3.2,2-6.1,5.1-7.2C9,2,9.7,1.8,10.4,1.8
		C10.7,1.7,11.8,1.8,12.2,1.8z"/>
	<path class="st0" d="M10.4,5.2c-1.2,0.2-2.2,0.9-2.8,2C7.2,7.8,7.1,8.4,7.1,9.2c0,1,0.4,1.9,1.1,2.6c0.7,0.7,1.4,1,2.4,1.1
		c0.3,0,0.5,0,0.8,0c0.9-0.1,1.7-0.5,2.4-1.1c0.5-0.5,0.8-1,1-1.7c0.1-0.4,0.2-1.2,0.1-1.7c-0.1-0.9-0.6-1.8-1.4-2.4
		c-0.4-0.3-1.1-0.7-1.5-0.8C11.6,5.2,10.7,5.1,10.4,5.2z M11.6,6.4c1,0.2,1.8,1,2.1,2c0.1,0.3,0.1,0.9,0,1.3
		c-0.1,0.5-0.3,0.9-0.7,1.2c-0.6,0.6-1.1,0.8-1.9,0.8c-0.8,0-1.3-0.2-1.9-0.8c-0.4-0.4-0.6-0.8-0.7-1.2c-0.1-0.3-0.1-0.9,0-1.3
		C8.7,7,10.1,6.1,11.6,6.4z"/>
</g>
</svg>
