<svg width="32" height="32" viewBox="0 0 32 32" xmlns="http://www.w3.org/2000/svg">
<path d="M15.375 0.0375099C14.3562 0.19376 13.375 0.70001 12.6313 1.44376C12.1188 1.96251 11.575 2.93751 11.4625 3.53751L11.425 3.75001H7.9625C5.625 3.75001 4.4 3.77501 4.175 3.81876C3.1 4.05001 2.23125 4.91876 2.00625 5.98751C1.96875 6.16876 1.9375 6.83751 1.9375 7.47501C1.9375 8.50626 1.95 8.65626 2.0625 8.87501C2.25625 9.25626 2.55 9.37501 3.275 9.37501H3.86875L3.9 9.63751C3.925 9.78751 4.30625 14.35 4.75 19.7813C5.2 25.2125 5.59375 29.7688 5.63125 29.9063C5.80625 30.5625 6.3625 31.2688 7 31.6438C7.6375 32.0125 7.2875 32 16 32C24.7563 32 24.3438 32.0188 25.0312 31.625C25.6375 31.2813 26.1875 30.5625 26.3687 29.9063C26.4 29.7688 26.8 25.2125 27.25 19.7813C27.6938 14.35 28.075 9.78751 28.1 9.63751L28.1313 9.37501H28.725C29.45 9.37501 29.7437 9.25626 29.9375 8.87501C30.05 8.65626 30.0625 8.50626 30.0625 7.47501C30.0625 6.83751 30.0312 6.16876 29.9937 5.98751C29.7625 4.91251 28.8938 4.04376 27.825 3.81876C27.6063 3.77501 26.3375 3.75001 24.0375 3.75001H20.575L20.5375 3.53751C20.3438 2.51876 19.3875 1.25001 18.3438 0.63751C17.475 0.13126 16.3188 -0.0999908 15.375 0.0375099ZM16.6687 1.96251C17.15 2.09376 17.5188 2.28751 17.8688 2.60001C18.175 2.87501 18.5125 3.34376 18.5938 3.60626L18.6313 3.75001H16H13.3688L13.4062 3.60626C13.4875 3.35001 13.825 2.87501 14.1188 2.60626C14.8188 1.98126 15.8063 1.73126 16.6687 1.96251ZM27.6875 5.75001C28.0625 5.94376 28.1875 6.23751 28.1875 6.93751V7.50001H16H3.8125V6.91876C3.81875 6.23751 3.91875 6.00001 4.2875 5.77501L4.53125 5.62501H15.9875C27.3438 5.62501 27.4438 5.62501 27.6875 5.75001ZM26.2063 9.63751C26.1938 9.78751 25.8188 14.3063 25.375 19.675C24.5 30.2563 24.5688 29.6625 24.1688 29.9625L23.9937 30.0938H16H8.00625L7.83125 29.9625C7.43125 29.6625 7.5 30.2563 6.625 19.675C6.18125 14.3063 5.80625 9.78751 5.79375 9.63751L5.7625 9.37501H16H26.2375L26.2063 9.63751Z"/>
<path d="M9.925 13.2562C9.78125 13.3313 9.6375 13.475 9.5625 13.625C9.4375 13.8625 9.4375 13.9812 9.4375 19.75C9.4375 25.5188 9.4375 25.6375 9.5625 25.875C9.70625 26.1562 10.0625 26.375 10.375 26.375C10.6875 26.375 11.0438 26.1562 11.1875 25.875C11.3125 25.6375 11.3125 25.5188 11.3125 19.75C11.3125 13.9812 11.3125 13.8625 11.1875 13.625C10.9563 13.1687 10.3938 13.0062 9.925 13.2562Z"/>
<path d="M15.55 13.2562C15.4062 13.3313 15.2625 13.475 15.1875 13.625C15.0625 13.8625 15.0625 13.9812 15.0625 19.75C15.0625 25.5188 15.0625 25.6375 15.1875 25.875C15.3313 26.1562 15.6875 26.375 16 26.375C16.3125 26.375 16.6688 26.1562 16.8125 25.875C16.9375 25.6375 16.9375 25.5188 16.9375 19.75C16.9375 13.9812 16.9375 13.8625 16.8125 13.625C16.5813 13.1687 16.0188 13.0062 15.55 13.2562Z"/>
<path d="M21.175 13.2562C21.0312 13.3313 20.8875 13.475 20.8125 13.625C20.6875 13.8625 20.6875 13.9812 20.6875 19.75C20.6875 25.5188 20.6875 25.6375 20.8125 25.875C20.9563 26.1562 21.3125 26.375 21.625 26.375C21.9375 26.375 22.2938 26.1562 22.4375 25.875C22.5625 25.6375 22.5625 25.5188 22.5625 19.75C22.5625 13.9812 22.5625 13.8625 22.4375 13.625C22.2063 13.1687 21.6438 13.0062 21.175 13.2562Z"/>
</svg>
