<svg width="52" height="52" viewBox="0 0 52 52" xmlns="http://www.w3.org/2000/svg">
<path d="M23.2557 17.0192C22.6558 17.0625 21.8889 17.18 21.5859 17.2727C21.0602 17.4335 20.4108 18.0149 20.5283 18.2128C20.553 18.2437 20.6705 18.2932 20.8004 18.3179C21.3694 18.4231 21.8456 18.7447 22.0621 19.1652C22.4269 19.8826 22.5939 22.1338 22.396 23.7232C22.2661 24.7746 22.2105 25.0158 22.0126 25.3992C21.4993 26.4197 20.2995 25.5847 18.9945 23.2965C18.5245 22.4739 17.2134 19.8579 16.9227 19.159C16.564 18.3117 16.4527 18.1571 16.0507 17.953L15.7106 17.7799L13.144 17.7984C10.8248 17.817 10.5588 17.8293 10.3795 17.9283C10.0888 18.0829 9.96513 18.2994 10.0084 18.5777C10.0703 19.0663 11.5484 22.1585 12.7915 24.4035C14.2943 27.1185 16.2795 29.9386 17.7143 31.4106C18.9636 32.6908 20.887 33.94 22.4393 34.4781C23.4659 34.8368 24.0349 34.9234 25.6676 34.9605C27.2818 34.9976 27.7456 34.9481 28.092 34.7131C28.3703 34.5214 28.4569 34.2554 28.5125 33.4329C28.562 32.6165 28.7228 31.9177 28.9393 31.5466C29.1372 31.2188 29.5515 30.8354 29.7371 30.8292C30.3617 30.7983 30.7142 31.058 32.0253 32.53C33.2561 33.9091 33.7075 34.3111 34.3878 34.6389C34.697 34.7811 35.0681 34.9296 35.2227 34.9667C35.5938 35.0533 40.6033 34.9543 40.9249 34.8615C41.2465 34.7626 41.5928 34.4224 41.599 34.1998C41.6175 33.5999 41.5495 33.3525 41.2094 32.8206C40.6713 31.9795 39.9786 31.1941 38.4016 29.6294C36.6452 27.8916 36.5277 27.7308 36.5215 27.1494C36.5215 26.6609 36.7503 26.2898 38.2903 24.2489C40.461 21.3731 41.3269 19.9816 41.5681 19.0044C41.7103 18.4292 41.6299 18.1509 41.265 17.9592C40.9187 17.7861 40.3992 17.7675 37.1461 17.8293L34.5919 17.8788L34.394 18.1015C34.2889 18.2252 34.0786 18.6271 33.9302 18.9982C33.1571 20.9278 31.6481 23.5748 30.6214 24.7993C30.2195 25.2755 29.5948 25.7641 29.3907 25.7641C29.1001 25.7641 28.8589 25.5786 28.6795 25.2075L28.5125 24.8673L28.5311 21.6576C28.5434 18.8003 28.5373 18.4107 28.4445 18.1324C28.2342 17.483 27.9683 17.2913 27.0777 17.1305C26.552 17.0377 24.0287 16.9635 23.2557 17.0192Z"/>
</svg>
