<svg width="165" height="90" viewBox="0 0 165 90" fill="none" xmlns="http://www.w3.org/2000/svg">
<path d="M73.9221 0.219917C53.2699 1.43787 34.2682 6.67946 20.7173 14.8789C9.55515 21.6212 2.90998 29.538 0.586339 38.8249C0.0651487 40.8911 0 41.6088 0 44.5667C0 47.5246 0.0651487 48.2424 0.586339 50.3085C2.90998 59.5955 9.55515 67.5122 20.7173 74.2545C30.0553 79.9093 41.6083 84.0635 55.2461 86.6299C87.9508 92.8502 124.738 87.2389 146.693 72.7321C156.487 66.2508 162.264 58.943 164.414 50.2868C164.935 48.2424 165 47.5029 165 44.5667C165 41.6306 164.935 40.8911 164.414 38.8467C163.48 35.1275 162.351 32.5829 160.049 29.1247C148.496 11.6383 116.616 -0.215065 81.7617 0.00242615C79.0688 0.0241776 75.5291 0.132919 73.9221 0.219917ZM90.5567 2.1556C111.926 3.39531 130.949 8.72389 144.391 17.2279C149.538 20.4903 155.141 25.5143 157.812 29.277C160.136 32.5611 161.981 36.563 162.763 40.1081C163.154 41.8263 163.154 47.3071 162.763 49.0253C161.981 52.5705 160.136 56.5723 157.812 59.8565C155.141 63.6191 149.538 68.6432 144.391 71.9056C128.452 81.9973 104.26 87.6738 79.5683 87.1301C76.2892 87.0431 72.3802 86.8909 70.8818 86.7604C47.7323 84.8247 28.6654 78.4521 15.5054 68.317C13.0515 66.4248 8.75165 62.0532 7.18808 59.8565C4.86444 56.5723 3.01856 52.5705 2.23677 49.0253C1.84588 47.3071 1.84588 41.8263 2.23677 40.1081C3.01856 36.563 4.86444 32.5611 7.18808 29.277C8.75165 27.0803 13.0515 22.7087 15.5054 20.8165C29.6427 9.9201 50.3165 3.48231 75.6594 2.09035C78.6997 1.91636 87.0604 1.95986 90.5567 2.1556Z" fill="#EDE6E4"/>
<path d="M109.864 13.6166C105.694 14.5518 99.2663 18.2927 96.2261 21.5986C94.5756 23.382 93.6418 24.774 91.8828 28.1669C89.8415 32.1035 89.2552 32.6907 87.1704 32.93C85.7588 33.104 85.6503 33.1692 85.6503 33.6694C85.6503 33.9957 85.8674 34.0392 87.2355 34.0174C88.0825 34.0174 88.9077 34.0392 89.0597 34.0827C89.2117 34.1262 88.1042 37.7366 85.8674 44.4136C81.1767 58.4854 78.8748 64.51 76.2471 69.6863C75.1396 71.8612 74.6618 72.5572 73.2937 73.9274C71.5998 75.6238 70.0797 76.5373 68.2555 76.9505C67.1046 77.2115 64.1946 77.2333 62.9134 76.994C62.0447 76.8201 62.0013 76.8418 61.871 77.4073C61.6538 78.4077 62.2401 79.4517 63.326 79.9954C66.7788 81.6701 72.0342 78.5817 76.0517 72.5137C77.0072 71.0565 79.3091 66.4891 80.4384 63.814C81.459 61.3998 81.7413 61.0518 82.8489 60.7908L83.8044 60.5516L88.4517 47.3933C91.0142 40.1507 93.1858 34.1697 93.3161 34.0827C93.4464 34.0174 94.7059 33.9522 96.1175 33.9739C97.529 33.9739 98.7234 33.9304 98.7669 33.8869C98.8103 33.8434 98.9189 33.5825 98.984 33.2997L99.136 32.8212H96.4215C94.9231 32.8212 93.6853 32.7342 93.6853 32.6472C93.6853 32.3427 95.3574 28.1886 96.2478 26.2529C98.0719 22.3598 100.743 18.9669 102.915 17.8577C105.282 16.6615 108.973 16.3135 110.385 17.1835L111.102 17.6185L110.993 19.0757C110.928 19.8804 110.798 20.7939 110.733 21.1201C110.581 21.6638 110.624 21.7291 111.123 21.7291C111.645 21.7291 111.731 21.5333 112.774 18.4014C114.055 14.5736 114.12 13.9863 113.317 13.6818C112.774 13.4644 110.689 13.4209 109.864 13.6166Z" fill="#EDE6E4"/>
<path d="M128.383 25.8585C125.386 26.2283 121.955 27.729 118.893 30.0126C116.635 31.6873 113.073 35.2107 110.554 38.2774L108.643 40.5828L106.428 40.7133C103.953 40.8655 102.237 41.3658 100.587 42.4097C98.4366 43.8017 96.417 46.6944 95.8524 49.239C94.8969 53.4801 95.7221 57.1123 98.176 59.3524C101.043 61.9624 105.82 62.2234 110.315 59.9832C112.357 58.9827 112.748 58.6347 112.378 58.178C112.161 57.9387 111.879 58.004 110.663 58.613C108.513 59.7004 106.385 60.1137 104.409 59.8309C101.216 59.3959 98.5886 57.6125 97.3291 55.0461C96.6776 53.7194 96.6124 53.4366 96.6342 51.6314C96.6559 49.1955 97.1988 47.6513 98.5886 46.1071C100.065 44.4542 101.824 43.6712 104.365 43.519L106.363 43.4102L105.408 44.5847C103.171 47.3251 100.869 50.022 99.2835 51.7619C98.3497 52.7842 97.5897 53.7411 97.5897 53.8716C97.5897 54.5241 98.176 54.2414 99.6744 52.8494C100.587 52.0229 101.672 51.1747 102.085 50.979C104.3 49.9133 107.796 50.979 122.259 57.0688C124.996 58.2215 128.47 59.6569 129.969 60.2224L132.727 61.2881L134.898 59.0697C136.961 57.0035 137.07 56.8295 136.744 56.4598C136.397 56.0901 136.353 56.1118 135.789 56.6555C135.463 56.96 134.833 57.3298 134.377 57.5038C133.291 57.8735 132.748 57.6995 125.929 54.9591C110.967 48.9128 110.728 48.8258 107.145 48.8258C105.429 48.8258 104.561 48.9345 103.648 49.2608L102.432 49.6958L103.757 48.1516C104.495 47.3251 105.625 45.9766 106.254 45.1502C106.884 44.3454 107.536 43.693 107.709 43.693C107.883 43.693 110.011 44.0409 112.422 44.4542C122.933 46.2376 126.581 45.9984 131.098 43.1927C132.987 42.0183 135.637 39.2996 136.635 37.5597C138.373 34.5148 138.72 31.5351 137.613 29.3602C136.223 26.6415 132.792 25.3365 128.383 25.8585ZM132.596 28.0987C136.614 30.0779 137.613 35.0367 134.703 38.7341C133.617 40.0826 131.206 41.6703 129.209 42.301C127.189 42.9535 124.235 43.0622 121.043 42.6272C117.981 42.1923 110.12 40.8655 110.011 40.7568C109.838 40.5828 113.964 35.8197 116.07 33.797C118.372 31.5786 120.24 30.1866 122.476 29.0122C124.909 27.7507 126.429 27.381 129.078 27.4462C131.076 27.4897 131.51 27.5767 132.596 28.0987Z" fill="#EDE6E4"/>
<path d="M59.0038 28.1257C56.8322 29.2132 55.0515 30.1484 55.0515 30.2137C55.0515 30.2789 55.1166 30.4529 55.2252 30.6269C55.3772 30.8661 55.5727 30.8661 56.463 30.5617C57.8746 30.0832 58.6564 30.1049 58.8301 30.6269C58.9821 31.1489 58.2655 34.7375 57.4837 37.2169L56.8756 39.1091L55.0298 37.4779C48.7321 31.8666 43.4333 29.7569 37.3962 30.4312C33.1832 30.9096 30.599 32.0841 27.8628 34.781C24.779 37.8259 23.5847 41.0231 23.8452 45.5469C24.2579 52.8764 28.2536 58.118 35.0508 60.2712C37.2659 60.9454 41.6743 60.9454 44.2368 60.2494C48.5149 59.1185 52.0329 56.6825 58.1352 50.7015L61.1103 47.7436L61.9355 48.5048C62.3699 48.9181 65.4318 51.9195 68.7327 55.1601C72.0336 58.4225 74.8567 61.0977 74.987 61.0977C75.1173 61.0977 76.442 59.9232 77.897 58.5095C80.3943 56.0518 80.5246 55.8778 80.1772 55.5298C79.8297 55.1818 79.7429 55.2253 78.6788 56.1823C77.3323 57.3785 76.746 57.5743 75.7471 57.1175C75.1607 56.8348 66.3005 48.5048 64.0854 46.1559L63.4774 45.5034L72.6851 36.4992L81.8928 27.495L75.5951 27.4298C72.1204 27.408 69.2756 27.408 69.2322 27.4515C69.1888 27.4733 68.6893 28.9957 68.1029 30.8226L67.0171 34.1285H67.6035C68.1247 34.1285 68.2332 33.9763 68.5807 32.9541C69.2322 31.0401 69.6665 30.6486 71.3169 30.4529C72.9022 30.2789 76.7026 30.3007 76.8763 30.4964C77.0283 30.6486 63.0431 44.8292 62.8476 44.7422C62.7607 44.6987 61.7401 43.7852 60.5891 42.6978L58.5044 40.7186L59.0038 39.5441C59.2862 38.8916 59.7856 37.5867 60.0897 36.6297C60.7629 34.5853 63.0865 26.2553 63.0213 26.19C62.9779 26.1683 61.1755 27.0383 59.0038 28.1257ZM40.6102 32.1928C44.3237 32.8671 48.58 35.564 53.9005 40.5881L55.7247 42.2845L55.1166 43.5895C53.4445 47.2434 51.2077 49.6575 48.6452 50.571C47.3422 51.0495 45.3009 51.006 44.1282 50.484C43.151 50.0708 42.2172 48.9181 42.2172 48.1786C42.2172 47.4826 41.8263 47.8523 41.5657 48.7876C41.3268 49.6358 41.3485 49.8533 41.696 50.571C42.4995 52.2022 45.3878 52.8764 47.9937 52.05C50.5997 51.2452 53.7051 48.5918 55.7681 45.4382C56.3545 44.5464 56.8756 43.7635 56.9191 43.72C56.9625 43.6547 57.766 44.3942 58.7215 45.3294L60.4588 47.0694L58.5695 48.9833C54.4869 53.0939 50.4911 56.1606 47.7548 57.2698C46.1261 57.9223 43.151 58.4877 41.3485 58.4877C39.4375 58.4877 36.4624 57.9005 34.7034 57.161C32.4883 56.2476 30.7293 55.0514 28.992 53.3114C26.386 50.7015 25.3002 48.2438 25.1265 44.5682C24.9311 40.7403 25.8866 38.0652 28.2971 35.651C29.8606 34.1068 31.8151 32.9541 33.8564 32.3668C35.3766 31.9319 38.6774 31.8449 40.6102 32.1928Z" fill="#EDE6E4"/>
</svg>
